<svg id="svg" version="1.1" xmlns="http://www.w3.org/2000/svg" xmlns:xlink="http://www.w3.org/1999/xlink" width="400" height="400" viewBox="0, 0, 400,400"><g id="svgg"><path id="path0" d="M355.600 104.594 C 332.537 108.124,318.539 121.285,306.669 150.600 C 305.689 153.020,304.129 156.800,303.202 159.000 C 302.275 161.200,300.657 165.070,299.606 167.600 C 297.311 173.125,290.740 188.793,289.832 190.905 C 289.249 192.260,289.245 192.528,289.792 193.585 C 290.252 194.473,290.400 196.138,290.400 200.400 C 290.400 208.297,289.867 209.149,284.661 209.575 L 281.921 209.800 280.609 213.000 C 279.887 214.760,277.634 220.160,275.601 225.000 C 273.568 229.840,271.047 235.870,269.998 238.400 C 266.951 245.751,266.833 245.988,266.300 245.778 C 266.025 245.670,262.571 237.486,258.625 227.591 L 251.449 209.600 245.991 209.600 C 239.595 209.600,239.816 209.488,240.995 212.131 C 241.902 214.164,246.297 224.172,252.002 237.200 C 253.592 240.830,255.133 244.340,255.425 245.000 C 256.789 248.074,262.388 260.888,263.421 263.300 C 264.812 266.546,265.755 266.893,266.168 264.310 C 266.457 262.505,269.810 253.751,272.109 248.800 C 272.875 247.150,274.447 243.730,275.602 241.200 C 276.756 238.670,278.196 235.520,278.800 234.200 C 279.404 232.880,280.844 229.730,282.000 227.200 C 283.156 224.670,284.596 221.520,285.200 220.200 C 285.804 218.880,287.244 215.730,288.400 213.200 C 289.556 210.670,290.996 207.520,291.600 206.200 C 292.204 204.880,293.644 201.730,294.800 199.200 C 295.956 196.670,297.396 193.520,298.000 192.200 C 298.604 190.880,300.044 187.730,301.200 185.200 C 302.356 182.670,303.796 179.520,304.400 178.200 C 305.004 176.880,306.403 173.820,307.509 171.400 C 310.199 165.512,311.279 163.148,314.089 157.000 C 315.396 154.140,316.749 151.170,317.096 150.400 C 329.954 121.864,340.435 110.418,357.000 106.823 C 358.320 106.537,360.030 106.146,360.800 105.954 C 361.570 105.762,363.068 105.603,364.129 105.602 C 365.750 105.600,366.037 105.488,365.925 104.900 C 365.751 103.989,360.559 103.835,355.600 104.594 M119.467 133.867 C 118.837 134.496,119.350 134.752,121.759 135.010 C 126.085 135.474,129.273 137.801,131.088 141.822 C 131.737 143.261,131.818 145.495,132.000 167.200 L 132.200 191.000 137.300 191.112 L 142.400 191.224 142.400 165.292 C 142.400 145.656,142.517 139.243,142.880 138.880 C 143.764 137.996,165.205 138.229,168.836 139.162 C 178.926 141.755,184.301 150.272,184.698 164.296 C 185.085 177.973,180.715 185.911,170.604 189.898 L 167.809 191.000 176.604 191.121 L 185.400 191.243 188.227 188.236 C 197.355 178.527,199.867 162.154,194.094 150.005 C 190.016 141.426,182.091 135.999,171.000 134.190 C 167.227 133.575,120.054 133.279,119.467 133.867 M200.986 146.023 C 200.593 146.658,200.811 146.749,203.420 147.036 C 210.987 147.869,214.355 151.378,220.083 164.400 C 223.814 172.881,228.734 184.102,230.254 187.600 C 230.780 188.810,231.363 190.070,231.548 190.400 C 232.009 191.219,244.218 191.527,243.886 190.711 C 233.682 165.619,229.912 155.369,230.125 153.300 C 230.499 149.677,232.632 147.574,236.523 146.991 C 237.667 146.819,238.374 146.523,238.284 146.252 C 238.075 145.626,201.371 145.400,200.986 146.023 M103.467 196.267 C 102.871 196.863,103.173 202.800,103.800 202.800 C 104.192 202.800,104.400 202.407,104.400 201.667 C 104.400 199.888,104.815 199.883,106.439 201.642 C 107.270 202.542,108.136 203.163,108.363 203.023 C 108.602 202.875,108.232 202.281,107.488 201.616 L 106.200 200.465 107.100 199.507 C 108.091 198.452,108.262 197.222,107.520 196.480 C 107.014 195.974,103.922 195.811,103.467 196.267 M118.400 198.966 C 118.400 202.915,120.374 204.394,122.946 202.371 C 124.035 201.515,124.668 195.540,123.600 196.200 C 123.380 196.336,123.200 197.512,123.200 198.814 C 123.200 200.898,123.080 201.260,122.200 201.837 C 120.410 203.009,119.200 201.790,119.200 198.814 C 119.200 197.512,119.020 196.336,118.800 196.200 C 118.547 196.044,118.400 197.059,118.400 198.966 M134.880 196.480 C 133.689 197.671,134.487 199.305,136.506 199.812 C 137.838 200.146,138.132 200.554,137.799 201.604 C 137.489 202.580,136.136 202.647,135.129 201.736 C 134.725 201.370,134.261 201.206,134.098 201.370 C 133.743 201.726,135.457 203.200,136.225 203.200 C 139.101 203.200,140.099 199.244,137.238 199.187 C 136.433 199.171,135.200 198.253,135.200 197.670 C 135.200 196.892,136.717 196.327,137.574 196.786 C 138.666 197.371,138.981 197.300,138.400 196.600 C 137.804 195.882,135.555 195.805,134.880 196.480 M149.100 196.228 C 148.643 196.693,148.736 202.800,149.200 202.800 C 149.420 202.800,149.600 202.184,149.600 201.432 C 149.600 200.239,149.753 200.030,150.791 199.802 C 152.760 199.370,153.600 199.856,153.600 201.427 C 153.600 202.397,153.781 202.800,154.216 202.800 C 154.731 202.800,154.813 202.255,154.716 199.500 C 154.599 196.165,153.983 195.164,153.600 197.684 C 153.227 200.136,149.782 199.670,149.523 197.132 C 149.455 196.467,149.265 196.061,149.100 196.228 M165.067 196.267 C 164.632 196.701,164.757 202.800,165.200 202.800 C 165.435 202.800,165.600 201.400,165.600 199.400 C 165.600 195.993,165.562 195.771,165.067 196.267 M176.083 199.403 L 176.200 203.000 177.538 203.128 C 179.612 203.327,180.554 202.705,178.600 202.427 L 177.000 202.200 176.880 199.400 C 176.813 197.860,176.581 196.421,176.363 196.203 C 176.100 195.941,176.006 197.025,176.083 199.403 M199.801 196.853 C 201.651 203.006,201.988 203.640,202.969 202.826 C 203.631 202.276,205.747 196.413,205.405 196.072 C 205.047 195.714,204.618 196.538,203.757 199.232 C 202.829 202.134,202.432 202.062,201.382 198.798 C 200.620 196.428,199.117 194.579,199.801 196.853 M216.803 196.991 C 216.583 197.572,215.944 199.049,215.384 200.273 C 214.340 202.554,214.409 203.712,215.493 202.100 C 216.334 200.848,218.898 200.834,219.768 202.076 C 221.009 203.848,220.879 202.327,219.533 199.332 C 218.002 195.925,217.404 195.412,216.803 196.991 M230.667 196.267 C 230.232 196.701,230.357 202.800,230.800 202.800 C 231.020 202.800,231.200 202.271,231.200 201.624 C 231.200 200.977,231.369 200.343,231.576 200.215 C 231.955 199.981,233.600 201.482,233.600 202.061 C 233.600 202.690,235.263 203.297,235.723 202.837 C 236.039 202.521,236.031 202.400,235.696 202.400 C 234.194 202.400,233.295 200.254,234.400 199.307 C 236.052 197.893,234.929 196.000,232.438 196.000 C 231.610 196.000,230.813 196.120,230.667 196.267 M247.203 196.991 C 246.983 197.572,246.344 199.049,245.784 200.273 C 244.740 202.554,244.809 203.712,245.893 202.100 C 246.734 200.848,249.298 200.834,250.168 202.076 C 251.409 203.848,251.279 202.327,249.933 199.332 C 248.402 195.925,247.804 195.412,247.203 196.991 M261.067 196.267 C 260.631 196.702,260.763 202.730,261.215 203.009 C 262.814 203.997,266.634 201.874,267.036 199.773 C 267.519 197.252,262.834 194.500,261.067 196.267 M276.969 196.537 C 276.855 196.833,276.816 198.408,276.881 200.037 L 277.000 203.000 279.100 203.121 C 281.485 203.258,282.043 202.518,279.700 202.324 C 277.007 202.101,277.441 199.694,280.200 199.549 C 281.224 199.496,281.166 199.451,279.800 199.243 C 277.330 198.868,277.138 196.800,279.573 196.800 C 280.468 196.800,281.200 196.620,281.200 196.400 C 281.200 195.773,277.212 195.903,276.969 196.537 M107.000 197.802 C 107.000 198.697,105.916 199.407,105.054 199.076 C 104.289 198.782,104.170 196.947,104.900 196.692 C 105.750 196.394,107.000 197.055,107.000 197.802 M234.179 197.490 C 234.528 198.400,233.610 199.257,232.434 199.120 C 231.139 198.970,230.676 196.970,231.877 196.713 C 232.961 196.482,233.916 196.804,234.179 197.490 M265.269 197.462 C 267.392 199.384,264.378 203.807,262.185 201.987 C 261.587 201.491,261.335 197.598,261.867 197.067 C 262.379 196.554,264.543 196.806,265.269 197.462 M218.541 198.898 C 218.803 199.899,217.933 201.053,217.238 200.624 C 216.759 200.327,216.640 198.693,217.067 198.267 C 217.609 197.724,218.313 198.026,218.541 198.898 M248.941 198.898 C 249.203 199.899,248.333 201.053,247.638 200.624 C 247.159 200.327,247.040 198.693,247.467 198.267 C 248.009 197.724,248.713 198.026,248.941 198.898 M132.267 209.867 C 132.120 210.013,132.000 217.198,132.000 225.834 C 132.000 240.794,131.961 241.625,131.176 243.467 C 129.519 247.355,125.983 249.956,121.800 250.365 C 120.038 250.538,119.400 250.759,119.400 251.200 C 119.400 251.929,154.114 252.313,155.200 251.596 C 156.128 250.983,154.984 250.414,152.800 250.402 C 149.091 250.382,145.299 247.634,143.442 243.620 C 142.637 241.880,142.595 241.089,142.479 225.700 L 142.358 209.600 137.446 209.600 C 134.744 209.600,132.413 209.720,132.267 209.867 M166.000 209.816 C 166.000 209.935,173.164 217.990,181.919 227.716 C 190.675 237.442,200.726 248.640,204.254 252.600 C 225.621 276.578,243.255 285.291,263.318 281.782 C 270.448 280.535,270.569 279.805,263.700 279.478 C 247.714 278.718,235.540 270.397,209.445 242.397 C 198.223 230.356,187.436 218.584,182.042 212.490 L 179.484 209.600 172.742 209.600 C 169.034 209.600,166.000 209.697,166.000 209.816 " stroke="none" fill="#f6f6f6" fill-rule="evenodd"></path><path id="path1" d="M0.000 200.000 L 0.000 400.000 200.000 400.000 L 400.000 400.000 400.000 200.000 L 400.000 0.000 200.000 0.000 L 0.000 0.000 0.000 200.000 M366.733 104.542 C 366.964 105.749,366.338 106.013,361.867 106.600 C 342.806 109.102,331.245 120.517,318.116 149.800 C 317.425 151.340,314.307 158.180,311.186 165.000 C 308.066 171.820,303.212 182.440,300.400 188.600 C 297.589 194.760,291.828 207.360,287.600 216.600 C 269.336 256.508,267.369 261.059,266.900 264.494 C 266.230 269.404,264.580 267.579,259.762 256.598 C 243.908 220.474,239.200 209.630,239.200 209.242 C 239.200 208.578,251.369 208.634,251.902 209.300 C 252.122 209.575,255.398 217.583,259.182 227.096 C 262.967 236.608,266.186 244.468,266.336 244.561 C 266.487 244.654,268.121 241.101,269.968 236.665 C 282.693 206.099,281.180 208.937,284.860 208.729 C 289.295 208.478,289.600 207.952,289.600 200.558 C 289.600 196.244,289.450 194.470,289.013 193.625 C 288.449 192.535,288.561 192.168,291.844 184.345 C 293.724 179.865,298.229 169.090,301.856 160.400 C 309.266 142.646,311.441 137.901,314.468 132.882 C 324.655 115.988,335.215 108.083,352.467 104.435 C 357.639 103.341,366.515 103.408,366.733 104.542 M173.023 133.716 C 185.995 136.539,194.754 144.922,197.221 156.875 C 199.666 168.727,195.952 181.675,187.747 189.900 L 185.652 192.000 174.426 192.000 C 167.209 192.000,163.200 191.857,163.200 191.600 C 163.200 191.380,163.729 191.200,164.376 191.200 C 165.023 191.200,165.651 191.040,165.772 190.845 C 165.893 190.650,166.668 190.367,167.496 190.216 C 188.578 186.368,190.541 147.116,170.000 140.146 C 168.042 139.482,166.456 139.400,155.600 139.400 L 143.400 139.400 143.200 165.600 L 143.000 191.800 137.431 191.912 C 133.244 191.996,131.781 191.896,131.537 191.512 C 131.358 191.230,131.209 180.491,131.206 167.646 C 131.199 140.989,131.322 142.097,128.016 138.771 C 125.752 136.494,123.733 135.600,120.856 135.600 C 118.662 135.600,117.259 133.769,118.900 133.047 C 120.183 132.482,170.195 133.101,173.023 133.716 M238.567 145.043 C 238.915 145.176,239.200 145.713,239.200 146.235 C 239.200 147.225,238.948 147.341,235.896 147.750 C 233.959 148.009,232.268 149.227,231.449 150.953 C 230.085 153.828,230.353 154.777,237.798 173.449 C 241.646 183.102,244.796 191.225,244.798 191.500 C 244.799 191.880,243.216 192.000,238.208 192.000 L 231.616 192.000 230.853 190.500 C 230.433 189.675,226.908 181.710,223.019 172.800 C 213.434 150.841,211.678 148.622,203.138 147.680 C 200.529 147.392,199.368 146.100,200.865 145.151 C 201.468 144.769,237.584 144.665,238.567 145.043 M107.326 195.660 C 108.906 196.492,109.379 198.622,108.200 199.600 C 107.294 200.352,107.478 201.154,108.621 201.441 C 109.376 201.631,109.611 201.920,109.521 202.549 C 109.336 203.846,107.422 203.918,106.310 202.669 L 105.432 201.683 105.004 202.542 C 103.661 205.235,101.763 198.878,102.971 195.732 C 103.225 195.069,106.114 195.022,107.326 195.660 M119.672 198.152 C 120.127 202.759,122.395 203.192,122.406 198.673 C 122.417 194.277,124.501 193.480,124.722 197.787 C 124.992 203.034,121.637 205.674,118.582 202.618 C 117.132 201.169,117.065 195.068,118.500 195.272 C 119.302 195.386,119.430 195.700,119.672 198.152 M139.025 196.182 C 139.379 196.723,139.553 197.353,139.411 197.582 C 139.082 198.114,137.725 198.126,137.400 197.600 C 137.081 197.084,136.000 197.079,136.000 197.595 C 136.000 197.812,136.669 198.269,137.486 198.610 C 140.957 200.061,140.145 203.600,136.340 203.600 C 134.416 203.600,132.779 201.850,133.774 200.855 C 134.309 200.320,134.457 200.328,135.119 200.927 C 135.973 201.700,137.345 201.834,137.107 201.122 C 137.020 200.859,136.447 200.510,135.836 200.346 C 132.428 199.435,133.271 195.200,136.861 195.200 C 138.034 195.200,138.529 195.424,139.025 196.182 M150.331 196.600 C 150.593 199.008,153.044 199.090,153.275 196.699 C 153.433 195.057,154.947 194.603,155.342 196.079 C 155.849 197.971,155.626 202.681,155.005 203.196 C 154.026 204.008,153.200 203.375,153.200 201.813 C 153.200 200.465,153.136 200.400,151.800 200.400 C 150.475 200.400,150.400 200.473,150.400 201.757 C 150.400 203.166,149.713 203.772,148.600 203.345 C 147.974 203.104,147.702 197.242,148.251 195.812 C 148.690 194.667,150.182 195.233,150.331 196.600 M166.314 199.252 C 166.433 203.267,166.151 203.940,164.600 203.345 C 163.181 202.800,163.900 195.072,165.351 195.279 C 166.140 195.391,166.208 195.673,166.314 199.252 M177.389 196.100 C 177.501 196.595,177.639 197.990,177.696 199.200 C 177.799 201.383,177.811 201.402,179.195 201.600 C 182.498 202.073,180.702 203.779,177.168 203.526 L 175.400 203.400 175.286 199.300 L 175.172 195.200 176.178 195.200 C 176.895 195.200,177.243 195.459,177.389 196.100 M201.766 197.800 L 202.533 200.200 203.282 198.400 C 204.413 195.683,204.610 195.411,205.541 195.272 C 206.695 195.101,206.647 195.676,205.168 199.762 C 203.917 203.219,203.250 203.924,201.693 203.429 C 200.906 203.180,198.714 196.690,199.087 195.716 C 199.623 194.320,200.996 195.388,201.766 197.800 M218.687 195.700 C 219.453 196.696,221.667 202.769,221.413 203.179 C 220.996 203.854,220.048 203.666,219.507 202.800 C 219.186 202.285,218.574 202.000,217.793 202.000 C 217.073 202.000,216.299 202.326,215.893 202.800 C 215.135 203.685,214.858 203.751,214.056 203.243 C 213.619 202.966,213.846 202.135,215.199 199.049 C 216.887 195.201,217.701 194.419,218.687 195.700 M235.018 196.182 C 236.255 197.419,236.110 199.128,234.689 200.055 C 234.132 200.418,234.708 201.185,235.868 201.626 C 237.221 202.140,236.954 203.359,235.451 203.531 C 234.632 203.625,233.981 203.349,233.154 202.556 C 232.073 201.520,232.000 201.503,232.000 202.282 C 232.000 203.196,231.138 203.705,230.200 203.345 C 229.579 203.106,229.300 197.247,229.843 195.833 C 230.262 194.740,233.816 194.980,235.018 196.182 M249.087 195.700 C 249.853 196.696,252.067 202.769,251.813 203.179 C 251.396 203.854,250.448 203.666,249.907 202.800 C 249.586 202.285,248.974 202.000,248.193 202.000 C 247.473 202.000,246.699 202.326,246.293 202.800 C 245.535 203.685,245.258 203.751,244.456 203.243 C 244.019 202.966,244.246 202.135,245.599 199.049 C 247.287 195.201,248.101 194.419,249.087 195.700 M265.608 195.804 C 270.612 198.392,265.987 205.412,260.633 203.357 C 259.980 203.107,259.679 197.301,260.243 195.833 C 260.564 194.995,264.007 194.976,265.608 195.804 M281.800 196.200 C 281.800 196.836,281.492 197.025,280.300 197.124 C 278.320 197.288,278.196 198.400,280.157 198.400 C 281.592 198.400,282.261 199.179,281.489 199.951 C 281.242 200.198,280.536 200.400,279.920 200.400 C 279.191 200.400,278.800 200.610,278.800 201.000 C 278.800 201.435,279.248 201.600,280.428 201.600 C 281.887 201.600,282.042 201.693,281.928 202.500 C 281.810 203.328,281.592 203.400,279.200 203.400 L 276.600 203.400 276.483 199.832 C 276.328 195.067,276.284 195.138,279.295 195.281 C 281.494 195.385,281.800 195.498,281.800 196.200 M105.200 197.833 C 105.200 198.182,105.414 198.395,105.675 198.308 C 106.417 198.061,106.540 197.200,105.833 197.200 C 105.485 197.200,105.200 197.485,105.200 197.833 M232.087 197.662 C 232.295 198.285,233.190 198.394,233.221 197.800 C 233.233 197.580,232.942 197.338,232.575 197.262 C 232.158 197.175,231.975 197.325,232.087 197.662 M262.667 197.467 C 262.264 197.869,262.347 201.120,262.766 201.379 C 262.968 201.504,263.598 201.429,264.166 201.213 C 265.668 200.642,265.673 198.160,264.174 197.590 C 262.954 197.126,263.003 197.130,262.667 197.467 M143.200 225.600 C 143.395 241.769,143.423 242.243,144.285 243.854 C 146.213 247.459,149.094 249.329,153.476 249.820 C 156.045 250.108,156.853 250.772,155.955 251.855 C 155.574 252.314,152.359 252.390,137.048 252.304 L 118.600 252.200 118.600 251.209 C 118.600 250.301,118.818 250.182,121.200 249.780 C 126.092 248.956,128.410 247.442,130.162 243.926 L 131.200 241.843 131.200 225.954 C 131.200 217.215,131.311 209.776,131.447 209.422 C 131.661 208.865,132.456 208.794,137.347 208.889 L 143.000 209.000 143.200 225.600 M189.652 219.900 C 235.836 270.593,245.142 277.942,264.200 278.773 C 269.224 278.992,269.404 279.031,269.529 279.908 C 269.799 281.810,263.882 283.027,254.800 282.938 C 236.725 282.761,222.882 274.524,202.804 252.000 C 193.167 241.188,185.921 233.128,176.400 222.629 C 166.943 212.200,164.800 209.709,164.800 209.144 C 164.800 208.955,168.116 208.800,172.170 208.800 L 179.539 208.800 189.652 219.900 " stroke="none" fill="#040404" fill-rule="evenodd"></path><path id="path2" d="M131.129 133.500 C 137.579 133.562,148.019 133.562,154.329 133.500 C 160.638 133.438,155.360 133.387,142.600 133.387 C 129.840 133.387,124.678 133.438,131.129 133.500 M142.984 139.300 C 142.879 139.575,142.839 151.320,142.896 165.400 L 143.000 191.000 143.200 164.900 C 143.310 150.545,143.349 138.800,143.287 138.800 C 143.226 138.800,143.089 139.025,142.984 139.300 M210.300 145.500 C 215.415 145.563,223.785 145.563,228.900 145.500 C 234.015 145.436,229.830 145.385,219.600 145.385 C 209.370 145.385,205.185 145.436,210.300 145.500 M131.787 168.600 C 131.787 181.140,131.838 186.212,131.900 179.872 C 131.962 173.531,131.962 163.271,131.900 157.072 C 131.838 150.872,131.787 156.060,131.787 168.600 M166.576 190.987 C 165.917 191.486,165.899 191.576,166.457 191.587 C 166.819 191.594,167.218 191.330,167.345 191.000 C 167.631 190.255,167.547 190.253,166.576 190.987 M117.765 196.148 C 117.649 196.449,117.613 197.664,117.684 198.848 L 117.813 201.000 118.007 198.299 C 118.201 195.581,118.152 195.139,117.765 196.148 M290.154 200.400 C 290.154 203.150,290.218 204.275,290.296 202.900 C 290.374 201.525,290.374 199.275,290.296 197.900 C 290.218 196.525,290.154 197.650,290.154 200.400 M122.920 198.000 C 122.920 199.210,122.995 199.705,123.087 199.100 C 123.178 198.495,123.178 197.505,123.087 196.900 C 122.995 196.295,122.920 196.790,122.920 198.000 M119.320 198.400 C 119.320 199.610,119.395 200.105,119.487 199.500 C 119.578 198.895,119.578 197.905,119.487 197.300 C 119.395 196.695,119.320 197.190,119.320 198.400 M124.509 198.000 C 124.509 198.990,124.587 199.395,124.682 198.900 C 124.778 198.405,124.778 197.595,124.682 197.100 C 124.587 196.605,124.509 197.010,124.509 198.000 M175.340 199.600 C 175.340 201.470,175.409 202.235,175.493 201.300 C 175.577 200.365,175.577 198.835,175.493 197.900 C 175.409 196.965,175.340 197.730,175.340 199.600 M176.928 198.800 C 176.928 200.230,177.001 200.815,177.089 200.100 C 177.178 199.385,177.178 198.215,177.089 197.500 C 177.001 196.785,176.928 197.370,176.928 198.800 M152.000 198.400 L 150.600 198.695 151.876 198.747 C 152.578 198.776,153.264 198.620,153.400 198.400 C 153.536 198.180,153.592 198.024,153.524 198.053 C 153.456 198.082,152.770 198.238,152.000 198.400 M279.300 201.876 C 279.685 201.976,280.315 201.976,280.700 201.876 C 281.085 201.775,280.770 201.693,280.000 201.693 C 279.230 201.693,278.915 201.775,279.300 201.876 M131.781 224.600 C 131.781 232.960,131.834 236.437,131.899 232.326 C 131.964 228.216,131.964 221.376,131.900 217.126 C 131.835 212.877,131.782 216.240,131.781 224.600 M142.982 225.200 C 142.982 233.670,143.035 237.135,143.099 232.900 C 143.164 228.665,143.164 221.735,143.099 217.500 C 143.035 213.265,142.982 216.730,142.982 225.200 M213.200 246.200 C 213.946 246.970,214.647 247.600,214.757 247.600 C 214.867 247.600,214.346 246.970,213.600 246.200 C 212.854 245.430,212.153 244.800,212.043 244.800 C 211.933 244.800,212.454 245.430,213.200 246.200 M225.200 258.125 C 225.200 258.194,225.785 258.779,226.500 259.425 L 227.800 260.600 226.625 259.300 C 225.530 258.088,225.200 257.816,225.200 258.125 " stroke="none" fill="#7c7c7c" fill-rule="evenodd"></path><path id="path3" d="M361.199 103.893 C 366.022 104.014,366.400 104.079,366.400 104.793 C 366.400 105.373,366.029 105.624,364.900 105.809 C 362.373 106.221,362.151 106.305,363.474 106.354 C 365.534 106.429,366.876 105.746,366.728 104.699 C 366.603 103.820,366.484 103.800,361.299 103.782 L 355.999 103.764 361.199 103.893 M352.600 104.400 C 351.511 104.677,351.493 104.707,352.400 104.725 C 352.950 104.735,353.760 104.589,354.200 104.400 C 355.186 103.976,354.266 103.976,352.600 104.400 M349.200 105.200 C 348.376 105.464,348.341 105.526,349.000 105.554 C 349.440 105.573,350.070 105.413,350.400 105.200 C 351.101 104.747,350.614 104.747,349.200 105.200 M359.700 106.676 C 360.085 106.776,360.715 106.776,361.100 106.676 C 361.485 106.575,361.170 106.493,360.400 106.493 C 359.630 106.493,359.315 106.575,359.700 106.676 M340.600 107.978 C 339.720 108.395,339.180 108.736,339.400 108.738 C 339.946 108.742,343.102 107.264,342.600 107.240 C 342.380 107.230,341.480 107.562,340.600 107.978 M355.200 107.618 C 354.762 107.915,354.924 107.952,355.800 107.756 C 357.271 107.427,357.590 107.198,356.567 107.206 C 356.145 107.209,355.530 107.395,355.200 107.618 M351.800 108.829 C 350.920 109.252,350.638 109.486,351.174 109.349 C 352.639 108.973,354.686 108.029,354.000 108.045 C 353.670 108.053,352.680 108.406,351.800 108.829 M335.900 110.229 C 334.405 111.040,334.496 111.378,336.000 110.600 C 336.660 110.259,337.200 109.894,337.200 109.790 C 337.200 109.532,337.157 109.547,335.900 110.229 M342.562 113.527 C 338.784 115.970,334.466 120.523,330.449 126.300 C 328.567 129.007,330.010 127.458,332.313 124.300 C 335.165 120.387,340.635 114.974,343.300 113.427 C 344.964 112.461,345.533 112.000,345.062 112.000 C 344.986 112.000,343.861 112.687,342.562 113.527 M329.972 114.267 C 327.728 116.125,322.800 120.901,322.800 121.218 C 322.800 121.350,324.105 120.179,325.700 118.615 C 327.295 117.052,329.410 115.112,330.400 114.304 C 331.390 113.497,332.097 112.828,331.972 112.818 C 331.847 112.808,330.947 113.460,329.972 114.267 M321.360 122.900 C 319.565 124.971,316.776 128.903,317.884 127.800 C 318.516 127.171,322.434 122.000,322.279 122.000 C 322.202 122.000,321.789 122.405,321.360 122.900 M327.108 131.300 C 326.233 132.649,325.448 134.256,325.887 133.800 C 326.448 133.217,328.098 130.400,327.879 130.400 C 327.776 130.400,327.429 130.805,327.108 131.300 M315.152 131.700 C 314.890 132.195,314.415 133.050,314.096 133.600 C 313.539 134.559,313.543 134.567,314.188 133.800 C 314.986 132.852,316.105 130.800,315.824 130.800 C 315.716 130.800,315.414 131.205,315.152 131.700 M118.900 133.065 C 118.625 133.176,118.400 133.442,118.400 133.657 C 118.400 133.875,118.621 133.904,118.900 133.724 C 119.175 133.546,129.750 133.307,142.400 133.194 L 165.400 132.987 142.400 132.925 C 129.750 132.891,119.175 132.954,118.900 133.065 M166.691 133.489 C 167.401 133.577,168.661 133.579,169.491 133.492 C 170.321 133.405,169.740 133.333,168.200 133.331 C 166.660 133.329,165.981 133.400,166.691 133.489 M172.600 133.981 C 173.368 134.329,175.510 134.556,175.167 134.253 C 175.075 134.172,174.280 133.996,173.400 133.862 C 172.285 133.693,172.042 133.729,172.600 133.981 M322.979 138.842 C 321.754 141.285,320.814 143.348,320.892 143.425 C 320.969 143.503,322.060 141.504,323.314 138.983 C 324.569 136.462,325.508 134.400,325.401 134.400 C 325.294 134.400,324.204 136.399,322.979 138.842 M311.376 138.448 C 309.563 142.058,308.546 144.387,308.968 143.965 C 309.343 143.590,313.587 134.800,313.393 134.800 C 313.291 134.800,312.384 136.442,311.376 138.448 M119.233 135.345 C 119.325 135.424,120.480 135.587,121.800 135.707 C 123.249 135.838,123.883 135.792,123.400 135.590 C 122.630 135.269,118.893 135.049,119.233 135.345 M181.788 137.071 C 184.038 138.241,187.445 140.682,189.003 142.239 C 189.578 142.814,190.135 143.199,190.240 143.093 C 190.848 142.485,181.479 135.938,180.116 136.019 C 179.942 136.029,180.695 136.502,181.788 137.071 M126.685 137.385 C 127.392 137.962,128.536 139.102,129.227 139.917 C 129.918 140.733,130.295 141.027,130.065 140.571 C 129.540 139.528,127.257 137.262,126.200 136.734 C 125.760 136.515,125.978 136.808,126.685 137.385 M143.461 139.100 C 143.359 139.265,146.543 139.354,150.538 139.298 C 164.096 139.106,165.431 138.968,154.524 138.884 C 148.542 138.838,143.563 138.935,143.461 139.100 M166.433 139.343 C 166.525 139.422,167.320 139.597,168.200 139.732 C 169.290 139.899,169.609 139.855,169.200 139.595 C 168.653 139.246,166.045 139.009,166.433 139.343 M174.205 142.158 C 176.818 143.936,178.430 145.669,180.174 148.576 C 180.958 149.884,181.600 150.774,181.600 150.555 C 181.600 148.585,174.364 140.800,172.533 140.800 C 172.356 140.800,173.108 141.411,174.205 142.158 M191.683 145.210 C 192.407 146.206,193.323 147.466,193.717 148.010 C 194.407 148.962,194.407 148.949,193.717 147.661 C 193.323 146.924,192.407 145.664,191.683 144.861 L 190.366 143.400 191.683 145.210 M131.301 167.600 C 131.252 180.470,131.358 191.230,131.537 191.512 C 132.045 192.313,142.874 192.021,143.098 191.200 C 143.222 190.743,143.174 190.722,142.899 191.112 C 142.629 191.495,141.181 191.596,137.169 191.512 L 131.800 191.400 131.595 167.800 L 131.390 144.200 131.301 167.600 M308.292 144.883 C 306.777 148.665,306.401 149.736,306.704 149.400 C 307.192 148.860,308.848 144.714,308.653 144.520 C 308.568 144.435,308.406 144.598,308.292 144.883 M200.900 145.065 C 200.625 145.176,200.400 145.707,200.400 146.246 C 200.400 147.367,200.598 147.459,203.600 147.734 C 204.994 147.862,205.507 147.812,205.000 147.596 C 204.560 147.409,203.422 147.244,202.472 147.228 C 200.916 147.203,200.757 147.111,200.872 146.300 L 201.000 145.400 219.000 145.289 C 238.545 145.168,238.663 145.176,238.918 146.501 C 239.072 147.301,239.097 147.284,239.146 146.343 C 239.178 145.709,238.946 145.188,238.567 145.043 C 237.812 144.753,201.621 144.774,200.900 145.065 M319.000 147.061 C 318.664 147.865,318.482 148.615,318.595 148.728 C 318.708 148.841,318.800 148.835,318.800 148.716 C 318.800 148.596,319.072 147.846,319.405 147.049 C 319.738 146.252,319.921 145.600,319.811 145.600 C 319.701 145.600,319.336 146.258,319.000 147.061 M236.305 147.483 C 236.802 147.579,237.522 147.575,237.905 147.475 C 238.287 147.375,237.880 147.296,237.000 147.301 C 236.120 147.305,235.807 147.387,236.305 147.483 M232.892 148.621 C 232.405 148.962,231.813 149.637,231.576 150.121 L 231.146 151.000 231.873 150.112 C 232.273 149.623,232.960 148.954,233.400 148.625 C 234.461 147.830,234.025 147.827,232.892 148.621 M211.144 150.911 C 212.054 151.631,213.520 153.179,214.400 154.351 C 215.280 155.522,216.000 156.351,216.000 156.194 C 216.000 155.133,210.769 149.600,209.767 149.600 C 209.613 149.600,210.233 150.190,211.144 150.911 M230.643 151.833 C 230.173 153.058,230.468 156.218,231.200 157.800 C 232.122 159.792,232.225 159.380,231.352 157.195 C 230.919 156.113,230.763 154.848,230.884 153.387 C 231.076 151.074,231.035 150.810,230.643 151.833 M316.465 152.617 C 315.795 154.088,315.923 154.402,316.647 153.065 C 316.986 152.440,317.188 151.854,317.096 151.763 C 317.005 151.671,316.721 152.056,316.465 152.617 M196.056 153.200 C 196.056 153.530,196.211 154.160,196.400 154.600 C 196.617 155.104,196.744 155.178,196.744 154.800 C 196.744 154.470,196.589 153.840,196.400 153.400 C 196.183 152.896,196.056 152.822,196.056 153.200 M304.292 154.483 C 302.777 158.265,302.401 159.336,302.704 159.000 C 303.192 158.460,304.848 154.314,304.653 154.120 C 304.568 154.035,304.406 154.198,304.292 154.483 M183.473 157.200 C 183.604 158.190,183.776 159.075,183.856 159.167 C 184.157 159.514,183.928 156.964,183.590 156.200 C 183.353 155.666,183.314 155.998,183.473 157.200 M232.046 159.800 C 232.053 160.020,232.406 160.920,232.829 161.800 C 233.252 162.680,233.486 162.950,233.349 162.400 C 233.067 161.267,232.025 159.188,232.046 159.800 M312.600 161.061 C 312.264 161.865,312.082 162.615,312.195 162.728 C 312.308 162.841,312.400 162.835,312.400 162.716 C 312.400 162.596,312.672 161.846,313.005 161.049 C 313.338 160.252,313.521 159.600,313.411 159.600 C 313.301 159.600,312.936 160.258,312.600 161.061 M184.312 164.400 C 184.420 166.930,184.575 169.075,184.655 169.167 C 184.935 169.488,184.751 162.984,184.434 161.400 C 184.239 160.421,184.191 161.585,184.312 164.400 M197.748 164.000 C 197.748 166.310,197.814 167.255,197.895 166.100 C 197.976 164.945,197.976 163.055,197.895 161.900 C 197.814 160.745,197.748 161.690,197.748 164.000 M218.207 161.879 C 218.807 163.314,219.200 163.962,219.200 163.516 C 219.200 163.084,217.985 160.400,217.789 160.400 C 217.679 160.400,217.867 161.066,218.207 161.879 M233.646 163.800 C 233.653 164.020,234.006 164.920,234.429 165.800 C 234.852 166.680,235.086 166.950,234.949 166.400 C 234.667 165.267,233.625 163.188,233.646 163.800 M300.400 163.684 C 300.400 163.804,300.128 164.554,299.795 165.351 C 299.462 166.148,299.279 166.800,299.389 166.800 C 299.706 166.800,300.833 163.900,300.605 163.672 C 300.492 163.559,300.400 163.565,300.400 163.684 M219.807 165.479 C 220.407 166.914,220.800 167.562,220.800 167.116 C 220.800 166.684,219.585 164.000,219.389 164.000 C 219.279 164.000,219.467 164.666,219.807 165.479 M310.272 166.219 C 309.332 168.189,309.464 168.524,310.447 166.662 C 310.893 165.816,311.187 165.054,311.101 164.967 C 311.014 164.881,310.641 165.444,310.272 166.219 M221.407 169.079 C 222.007 170.514,222.400 171.162,222.400 170.716 C 222.400 170.284,221.185 167.600,220.989 167.600 C 220.879 167.600,221.067 168.266,221.407 169.079 M308.600 169.861 C 308.264 170.665,308.082 171.415,308.195 171.528 C 308.308 171.641,308.400 171.635,308.400 171.516 C 308.400 171.396,308.672 170.646,309.005 169.849 C 309.338 169.052,309.521 168.400,309.411 168.400 C 309.301 168.400,308.936 169.058,308.600 169.861 M183.654 173.067 C 183.625 173.544,183.496 174.264,183.370 174.667 C 183.152 175.361,183.164 175.362,183.596 174.688 C 183.847 174.297,183.975 173.577,183.881 173.088 C 183.709 172.201,183.709 172.201,183.654 173.067 M223.807 174.679 C 224.407 176.114,224.800 176.762,224.800 176.316 C 224.800 175.884,223.585 173.200,223.389 173.200 C 223.279 173.200,223.467 173.866,223.807 174.679 M296.400 173.284 C 296.400 173.404,296.128 174.154,295.795 174.951 C 295.462 175.748,295.279 176.400,295.389 176.400 C 295.706 176.400,296.833 173.500,296.605 173.272 C 296.492 173.159,296.400 173.165,296.400 173.284 M196.249 174.215 C 196.112 174.573,196.015 175.166,196.034 175.533 C 196.053 175.900,196.227 175.669,196.421 175.020 C 196.798 173.758,196.665 173.133,196.249 174.215 M306.200 175.061 C 305.864 175.865,305.682 176.615,305.795 176.728 C 305.908 176.841,306.000 176.835,306.000 176.716 C 306.000 176.596,306.272 175.846,306.605 175.049 C 306.938 174.252,307.121 173.600,307.011 173.600 C 306.901 173.600,306.536 174.258,306.200 175.061 M225.407 178.279 C 226.007 179.714,226.400 180.362,226.400 179.916 C 226.400 179.484,225.185 176.800,224.989 176.800 C 224.879 176.800,225.067 177.466,225.407 178.279 M181.478 179.405 C 181.112 180.172,180.895 180.800,180.996 180.800 C 181.270 180.800,182.484 178.351,182.301 178.168 C 182.214 178.081,181.844 178.638,181.478 179.405 M293.892 179.283 C 292.377 183.065,292.001 184.136,292.304 183.800 C 292.792 183.260,294.448 179.114,294.253 178.920 C 294.168 178.835,294.006 178.998,293.892 179.283 M303.800 180.261 C 303.464 181.065,303.282 181.815,303.395 181.928 C 303.508 182.041,303.600 182.035,303.600 181.916 C 303.600 181.796,303.872 181.046,304.205 180.249 C 304.538 179.452,304.721 178.800,304.611 178.800 C 304.501 178.800,304.136 179.458,303.800 180.261 M227.007 181.879 C 227.607 183.314,228.000 183.962,228.000 183.516 C 228.000 183.084,226.785 180.400,226.589 180.400 C 226.479 180.400,226.667 181.066,227.007 181.879 M177.668 184.291 C 176.055 185.946,175.245 186.933,175.868 186.484 C 177.300 185.451,181.380 181.068,180.749 181.241 C 180.667 181.263,179.281 182.636,177.668 184.291 M191.659 184.500 C 190.760 185.875,189.538 187.540,188.945 188.200 C 186.969 190.398,186.576 191.079,188.346 189.238 C 190.262 187.244,193.975 182.000,193.471 182.000 C 193.373 182.000,192.558 183.125,191.659 184.500 M228.065 184.200 C 228.060 184.733,230.336 189.514,230.350 189.000 C 230.356 188.780,229.845 187.520,229.215 186.200 C 228.584 184.880,228.067 183.980,228.065 184.200 M301.472 185.419 C 300.532 187.389,300.664 187.724,301.647 185.862 C 302.093 185.016,302.387 184.254,302.301 184.167 C 302.214 184.081,301.841 184.644,301.472 185.419 M299.800 189.061 C 299.464 189.865,299.282 190.615,299.395 190.728 C 299.508 190.841,299.600 190.835,299.600 190.716 C 299.600 190.596,299.872 189.846,300.205 189.049 C 300.538 188.252,300.721 187.600,300.611 187.600 C 300.501 187.600,300.136 188.258,299.800 189.061 M172.252 188.459 C 171.841 188.698,170.581 189.226,169.452 189.632 C 168.323 190.039,167.710 190.378,168.089 190.386 C 168.863 190.402,173.200 188.566,173.200 188.222 C 173.200 187.930,173.133 187.947,172.252 188.459 M289.264 190.429 C 288.554 192.136,288.495 192.619,288.906 193.338 C 289.205 193.859,289.487 196.573,289.620 200.200 L 289.841 206.200 289.920 200.480 C 289.982 196.069,289.863 194.496,289.403 193.606 C 288.859 192.553,288.877 192.286,289.613 190.569 C 290.057 189.534,290.351 188.618,290.267 188.534 C 290.183 188.450,289.732 189.303,289.264 190.429 M244.238 190.528 L 244.501 191.655 237.888 191.528 C 234.251 191.457,231.359 191.535,231.461 191.700 C 231.563 191.865,234.607 192.000,238.224 192.000 C 245.219 192.000,245.642 191.862,244.382 190.000 C 244.082 189.558,244.045 189.696,244.238 190.528 M165.800 190.800 C 165.664 191.020,165.023 191.200,164.376 191.200 C 163.729 191.200,163.200 191.380,163.200 191.600 C 163.200 192.071,185.448 192.170,185.739 191.700 C 185.841 191.535,181.396 191.443,175.862 191.496 C 166.882 191.581,165.883 191.527,166.576 190.996 C 167.229 190.495,167.249 190.400,166.700 190.400 C 166.341 190.400,165.936 190.580,165.800 190.800 M297.472 194.219 C 296.532 196.189,296.664 196.524,297.647 194.662 C 298.093 193.816,298.387 193.054,298.301 192.967 C 298.214 192.881,297.841 193.444,297.472 194.219 M102.971 195.732 C 101.763 198.878,103.661 205.235,105.004 202.542 L 105.432 201.683 106.286 202.642 C 106.833 203.256,107.545 203.585,108.270 203.559 C 109.373 203.519,109.369 203.511,108.078 203.205 C 106.880 202.921,105.645 201.867,105.613 201.100 C 105.578 200.278,104.836 200.945,104.727 201.897 C 104.650 202.558,104.322 203.046,103.900 203.126 C 103.272 203.245,103.200 202.858,103.200 199.380 L 103.200 195.501 105.417 195.685 C 106.650 195.787,107.405 195.723,107.117 195.540 C 106.263 194.999,103.198 195.140,102.971 195.732 M117.600 195.560 C 117.600 195.788,117.888 195.864,118.240 195.729 C 118.593 195.594,119.056 195.735,119.271 196.042 C 119.596 196.506,119.634 196.499,119.499 196.000 C 119.316 195.320,117.600 194.922,117.600 195.560 M122.589 196.101 C 122.458 196.624,122.419 197.941,122.503 199.027 C 122.648 200.894,122.660 200.865,122.728 198.487 C 122.802 195.898,123.594 194.787,124.471 196.042 C 124.796 196.506,124.834 196.499,124.699 196.000 C 124.416 194.950,122.859 195.024,122.589 196.101 M137.233 195.346 C 138.040 196.051,139.352 196.473,138.851 195.865 C 138.549 195.499,138.024 195.200,137.684 195.200 C 137.345 195.200,137.142 195.266,137.233 195.346 M148.251 195.812 C 147.975 196.531,147.899 203.200,148.167 203.200 C 148.259 203.200,148.664 203.314,149.067 203.454 C 149.769 203.697,149.770 203.684,149.082 203.146 C 148.041 202.332,148.229 195.880,149.300 195.675 C 149.841 195.572,150.000 195.814,150.000 196.747 C 150.000 197.410,150.150 198.046,150.334 198.159 C 150.518 198.273,150.561 197.699,150.429 196.883 C 150.166 195.258,148.734 194.554,148.251 195.812 M153.467 195.467 C 153.320 195.613,153.200 196.228,153.200 196.833 C 153.200 197.438,153.016 198.025,152.790 198.137 C 152.565 198.249,152.609 198.295,152.890 198.239 C 153.171 198.184,153.458 197.550,153.528 196.830 C 153.633 195.761,153.798 195.558,154.428 195.723 C 154.853 195.834,155.200 195.762,155.200 195.563 C 155.200 195.144,153.863 195.070,153.467 195.467 M164.251 195.812 C 163.975 196.531,163.899 203.200,164.167 203.200 C 164.259 203.200,164.664 203.314,165.067 203.454 C 165.769 203.697,165.770 203.684,165.082 203.146 C 164.052 202.340,164.228 195.880,165.285 195.678 C 165.887 195.563,165.987 196.024,166.109 199.474 L 166.248 203.400 166.224 199.400 C 166.201 195.637,166.150 195.393,165.351 195.279 C 164.850 195.207,164.399 195.426,164.251 195.812 M175.232 195.900 C 175.250 196.318,175.344 196.399,175.465 196.100 C 176.213 194.246,177.200 196.029,177.200 199.233 C 177.200 200.535,177.335 201.600,177.500 201.601 C 177.810 201.601,177.724 197.695,177.379 196.100 C 177.134 194.965,175.181 194.783,175.232 195.900 M199.875 195.479 C 200.370 195.575,200.920 196.116,201.143 196.725 C 201.360 197.316,201.551 197.563,201.568 197.274 C 201.631 196.238,200.766 195.200,199.886 195.254 L 199.000 195.309 199.875 195.479 M204.480 195.680 C 204.216 195.944,204.005 196.349,204.012 196.580 C 204.019 196.811,204.208 196.685,204.432 196.300 C 205.168 195.036,206.093 195.432,205.833 196.900 C 205.658 197.887,205.691 198.008,205.973 197.400 C 206.839 195.531,205.812 194.348,204.480 195.680 M216.467 196.300 C 216.013 197.385,216.016 197.387,216.652 196.500 C 217.426 195.421,218.213 195.347,218.768 196.300 C 218.992 196.685,219.181 196.811,219.188 196.580 C 219.233 195.028,217.093 194.808,216.467 196.300 M229.843 195.833 C 229.572 196.538,229.504 203.200,229.767 203.200 C 229.859 203.200,230.264 203.314,230.667 203.454 C 231.369 203.697,231.370 203.684,230.682 203.146 C 230.074 202.670,229.983 202.068,230.082 199.192 L 230.200 195.800 231.555 195.671 C 234.895 195.352,236.450 197.054,234.825 199.252 C 233.949 200.436,233.942 200.511,234.635 201.142 C 235.312 201.760,235.323 201.756,234.804 201.070 C 234.439 200.586,234.392 200.248,234.666 200.070 C 235.174 199.739,236.000 198.215,236.000 197.608 C 236.000 195.702,230.501 194.117,229.843 195.833 M246.867 196.300 C 246.413 197.385,246.416 197.387,247.052 196.500 C 247.826 195.421,248.613 195.347,249.168 196.300 C 249.392 196.685,249.581 196.811,249.588 196.580 C 249.633 195.028,247.493 194.808,246.867 196.300 M260.243 195.833 C 260.109 196.181,260.000 197.961,260.000 199.790 C 260.000 203.559,260.070 203.642,263.133 203.535 L 265.000 203.470 262.800 203.235 L 260.600 203.000 260.600 199.400 L 260.600 195.800 263.066 195.803 C 264.422 195.804,265.322 195.672,265.066 195.509 C 264.134 194.916,260.501 195.160,260.243 195.833 M276.578 195.712 C 276.462 196.015,276.419 197.869,276.483 199.832 L 276.600 203.400 279.200 203.400 C 281.592 203.400,281.810 203.328,281.928 202.500 C 281.998 202.005,281.880 201.600,281.665 201.600 C 281.451 201.600,281.369 201.960,281.484 202.400 C 281.676 203.136,281.496 203.200,279.247 203.200 L 276.800 203.200 276.800 199.400 L 276.800 195.600 279.200 195.600 C 281.067 195.600,281.600 195.733,281.600 196.200 C 281.600 196.633,281.156 196.800,280.000 196.800 C 278.594 196.800,278.406 196.909,278.446 197.700 C 278.479 198.341,278.544 198.405,278.671 197.923 C 278.790 197.473,279.346 197.204,280.325 197.123 C 281.492 197.026,281.800 196.833,281.800 196.200 C 281.800 195.186,276.954 194.734,276.578 195.712 M266.568 196.789 C 267.593 198.393,267.389 200.902,266.132 202.159 C 265.544 202.747,265.353 203.116,265.708 202.980 C 267.603 202.253,268.253 198.430,266.768 196.744 L 265.936 195.800 266.568 196.789 M133.867 196.667 C 132.910 197.624,134.121 199.888,135.836 200.346 C 137.158 200.700,137.537 201.457,136.522 201.720 C 135.895 201.883,135.889 201.913,136.476 201.954 C 136.848 201.979,137.269 201.812,137.411 201.582 C 137.761 201.016,136.863 200.000,136.013 200.000 C 134.933 200.000,133.874 198.572,134.095 197.414 C 134.303 196.328,134.280 196.253,133.867 196.667 M155.340 199.600 C 155.340 201.470,155.409 202.235,155.493 201.300 C 155.577 200.365,155.577 198.835,155.493 197.900 C 155.409 196.965,155.340 197.730,155.340 199.600 M295.429 198.648 C 294.863 199.885,294.407 201.010,294.416 201.148 C 294.437 201.482,295.558 199.398,296.256 197.728 C 297.178 195.520,296.532 196.240,295.429 198.648 M104.800 197.800 C 104.800 198.666,104.962 198.833,105.700 198.728 C 106.291 198.644,106.600 198.325,106.600 197.800 C 106.600 197.275,106.291 196.956,105.700 196.872 C 104.962 196.767,104.800 196.934,104.800 197.800 M137.092 197.455 C 138.458 198.129,139.621 197.968,139.568 197.113 C 139.544 196.711,139.493 196.708,139.335 197.100 C 139.094 197.697,137.750 197.766,137.400 197.200 C 137.264 196.980,136.848 196.804,136.476 196.809 C 136.089 196.814,136.351 197.090,137.092 197.455 M231.822 197.164 C 231.483 197.713,232.013 198.800,232.619 198.800 C 232.913 198.800,233.251 198.640,233.372 198.445 C 233.493 198.250,233.298 198.115,232.939 198.145 C 232.580 198.175,232.198 197.948,232.089 197.639 C 231.947 197.234,232.129 197.140,232.747 197.302 C 233.217 197.425,233.500 197.362,233.377 197.163 C 233.087 196.694,232.112 196.695,231.822 197.164 M262.480 197.280 C 261.957 197.803,261.814 201.037,262.300 201.339 C 262.465 201.442,262.600 200.597,262.600 199.463 C 262.600 197.502,262.650 197.405,263.600 197.501 C 264.380 197.580,264.468 197.515,264.000 197.207 C 263.222 196.695,263.057 196.703,262.480 197.280 M106.308 197.675 C 106.061 198.417,105.200 198.540,105.200 197.833 C 105.200 197.485,105.485 197.200,105.833 197.200 C 106.182 197.200,106.395 197.414,106.308 197.675 M265.134 199.231 C 265.262 200.571,265.148 200.849,264.342 201.172 C 263.792 201.392,263.658 201.560,264.020 201.575 C 265.294 201.627,266.359 198.516,265.293 197.857 C 265.124 197.753,265.052 198.371,265.134 199.231 M108.432 198.451 C 108.414 198.809,108.130 199.326,107.800 199.600 C 106.877 200.366,107.082 201.118,108.400 201.800 C 109.060 202.141,109.600 202.255,109.600 202.054 C 109.600 201.852,109.150 201.574,108.600 201.436 C 107.445 201.146,107.333 200.558,108.241 199.555 C 108.594 199.165,108.788 198.611,108.673 198.323 C 108.528 197.962,108.453 198.002,108.432 198.451 M201.632 198.281 C 201.614 198.546,201.806 199.215,202.058 199.769 C 202.549 200.845,203.204 200.791,203.194 199.676 C 203.189 199.142,203.115 199.114,202.842 199.545 C 202.583 199.954,202.393 199.804,202.080 198.945 C 201.851 198.315,201.649 198.017,201.632 198.281 M204.658 200.104 C 203.728 202.540,203.880 203.004,204.836 200.647 C 205.272 199.573,205.558 198.624,205.472 198.538 C 205.386 198.452,205.020 199.157,204.658 200.104 M217.264 198.896 C 216.574 199.586,216.700 200.000,217.600 200.000 C 218.040 200.000,218.400 199.741,218.400 199.424 C 218.400 198.616,217.815 198.345,217.264 198.896 M247.664 198.896 C 246.974 199.586,247.100 200.000,248.000 200.000 C 248.440 200.000,248.800 199.741,248.800 199.424 C 248.800 198.616,248.215 198.345,247.664 198.896 M124.446 200.067 C 124.421 200.434,124.296 201.064,124.170 201.467 C 123.952 202.162,123.963 202.163,124.397 201.487 C 124.648 201.096,124.773 200.466,124.673 200.087 C 124.511 199.468,124.488 199.466,124.446 200.067 M200.244 200.600 C 200.573 202.071,200.802 202.390,200.794 201.367 C 200.791 200.945,200.605 200.330,200.382 200.000 C 200.085 199.562,200.048 199.724,200.244 200.600 M214.250 201.191 C 213.347 203.447,213.487 203.783,214.437 201.642 C 214.866 200.675,215.145 199.812,215.058 199.725 C 214.971 199.638,214.608 200.298,214.250 201.191 M244.650 201.191 C 243.747 203.447,243.887 203.783,244.837 201.642 C 245.266 200.675,245.545 199.812,245.458 199.725 C 245.371 199.638,245.008 200.298,244.650 201.191 M139.260 201.020 C 139.227 201.691,138.976 202.501,138.703 202.820 C 138.429 203.140,138.533 203.110,138.935 202.754 C 139.425 202.319,139.607 201.731,139.492 200.954 L 139.320 199.800 139.260 201.020 M150.167 200.542 C 150.042 200.867,150.017 201.643,150.110 202.266 C 150.253 203.220,150.290 203.161,150.340 201.900 C 150.433 199.578,153.083 199.575,153.276 201.897 C 153.366 202.985,153.593 203.410,154.108 203.456 C 154.560 203.496,154.604 203.452,154.230 203.334 C 153.890 203.227,153.594 202.534,153.523 201.675 C 153.387 200.045,150.705 199.139,150.167 200.542 M278.446 200.900 C 278.479 201.539,278.544 201.604,278.671 201.123 C 278.779 200.717,279.358 200.383,280.125 200.288 C 281.350 200.134,281.341 200.126,279.900 200.064 C 278.580 200.008,278.406 200.108,278.446 200.900 M117.600 201.089 C 117.600 201.321,117.971 201.936,118.424 202.456 L 119.247 203.400 118.545 202.200 C 117.620 200.621,117.600 200.597,117.600 201.089 M231.787 201.289 C 231.647 201.654,231.617 202.279,231.720 202.677 C 231.858 203.208,231.919 203.142,231.954 202.425 L 232.000 201.450 233.154 202.556 C 234.533 203.877,236.600 203.924,236.600 202.633 C 236.600 202.212,236.330 201.784,236.000 201.683 C 235.516 201.535,235.496 201.602,235.900 202.030 C 236.687 202.864,236.494 203.200,235.229 203.200 C 234.385 203.200,233.776 202.840,233.050 201.912 C 232.214 200.844,231.999 200.738,231.787 201.289 M221.038 202.100 C 221.312 203.312,220.613 203.604,219.599 202.700 C 219.122 202.275,219.118 202.304,219.568 202.900 C 220.640 204.317,222.151 203.247,221.228 201.724 C 220.862 201.120,220.830 201.182,221.038 202.100 M251.438 202.100 C 251.712 203.312,251.013 203.604,249.999 202.700 C 249.522 202.275,249.518 202.304,249.968 202.900 C 251.040 204.317,252.551 203.247,251.628 201.724 C 251.262 201.120,251.230 201.182,251.438 202.100 M180.081 202.382 C 180.633 203.266,181.022 203.155,180.662 202.217 C 180.532 201.878,180.238 201.600,180.009 201.600 C 179.746 201.600,179.772 201.887,180.081 202.382 M215.843 202.233 C 215.460 203.231,215.557 203.409,216.100 202.699 C 216.375 202.339,217.230 201.974,218.000 201.886 C 219.358 201.733,219.350 201.726,217.743 201.664 C 216.558 201.618,216.016 201.781,215.843 202.233 M246.243 202.233 C 245.860 203.231,245.957 203.409,246.500 202.699 C 246.775 202.339,247.630 201.974,248.400 201.886 C 249.758 201.733,249.750 201.726,248.143 201.664 C 246.958 201.618,246.416 201.781,246.243 202.233 M293.400 203.061 C 293.064 203.865,292.882 204.615,292.995 204.728 C 293.108 204.841,293.200 204.835,293.200 204.716 C 293.200 204.596,293.472 203.846,293.805 203.049 C 294.138 202.252,294.321 201.600,294.211 201.600 C 294.101 201.600,293.736 202.258,293.400 203.061 M134.162 202.700 C 134.747 203.391,135.304 203.584,136.562 203.533 L 138.200 203.466 136.600 203.303 C 135.720 203.214,134.640 202.839,134.200 202.470 C 133.406 201.805,133.406 201.807,134.162 202.700 M122.980 202.773 C 122.771 202.979,121.880 203.218,121.000 203.306 L 119.400 203.466 121.024 203.533 C 121.931 203.570,122.989 203.341,123.424 203.013 C 123.851 202.690,124.011 202.420,123.780 202.413 C 123.549 202.406,123.189 202.568,122.980 202.773 M200.800 202.712 C 200.800 203.234,202.691 203.842,203.085 203.448 C 203.222 203.312,202.979 203.200,202.547 203.200 C 202.114 203.200,201.544 202.984,201.280 202.720 C 200.915 202.355,200.800 202.353,200.800 202.712 M175.561 203.323 C 175.740 203.500,176.856 203.588,178.043 203.517 L 180.200 203.389 177.718 203.194 C 176.354 203.087,175.383 203.145,175.561 203.323 M288.870 207.237 C 288.595 207.677,287.972 208.197,287.485 208.393 C 286.913 208.623,286.823 208.758,287.230 208.775 C 287.880 208.801,289.880 206.946,289.553 206.620 C 289.452 206.519,289.145 206.796,288.870 207.237 M291.000 208.261 C 290.664 209.065,290.482 209.815,290.595 209.928 C 290.708 210.041,290.800 210.035,290.800 209.916 C 290.800 209.796,291.072 209.046,291.405 208.249 C 291.738 207.452,291.921 206.800,291.811 206.800 C 291.701 206.800,291.336 207.458,291.000 208.261 M131.447 209.422 C 131.311 209.776,131.242 217.116,131.293 225.733 L 131.386 241.400 131.593 225.400 L 131.800 209.400 137.169 209.288 C 141.181 209.204,142.629 209.305,142.899 209.688 C 143.174 210.078,143.222 210.057,143.098 209.600 C 142.844 208.666,131.802 208.498,131.447 209.422 M164.800 209.169 C 164.800 209.782,177.735 224.400,178.278 224.400 C 178.393 224.400,176.982 222.753,175.143 220.739 C 168.655 213.635,165.600 210.083,165.600 209.644 C 165.600 209.336,167.725 209.200,172.549 209.200 L 179.498 209.200 181.157 211.000 C 182.070 211.990,182.941 212.800,183.093 212.800 C 183.245 212.800,182.483 211.900,181.400 210.800 L 179.430 208.800 172.115 208.800 C 167.910 208.800,164.800 208.957,164.800 209.169 M239.200 209.192 C 239.200 209.791,240.479 212.854,240.655 212.678 C 240.741 212.593,240.545 211.888,240.221 211.112 C 239.418 209.190,239.388 209.200,245.854 209.200 L 251.574 209.200 252.171 210.300 C 252.499 210.905,252.775 211.215,252.784 210.989 C 252.857 209.111,251.805 208.800,245.377 208.800 C 241.611 208.800,239.200 208.953,239.200 209.192 M281.711 209.300 C 280.955 210.277,280.743 210.985,281.465 210.120 C 281.999 209.481,282.748 209.199,284.200 209.092 L 286.200 208.944 284.149 208.872 C 282.902 208.828,281.946 208.996,281.711 209.300 M288.672 213.419 C 287.732 215.389,287.864 215.724,288.847 213.862 C 289.293 213.016,289.587 212.254,289.501 212.167 C 289.414 212.081,289.041 212.644,288.672 213.419 M186.843 217.200 C 188.895 219.510,190.624 221.475,190.687 221.567 C 190.749 221.658,190.876 221.658,190.968 221.565 C 191.060 221.473,189.331 219.508,187.124 217.199 L 183.113 213.000 186.843 217.200 M241.407 214.679 C 242.007 216.114,242.400 216.762,242.400 216.316 C 242.400 215.884,241.185 213.200,240.989 213.200 C 240.879 213.200,241.067 213.866,241.407 214.679 M287.000 217.061 C 286.664 217.865,286.482 218.615,286.595 218.728 C 286.708 218.841,286.800 218.835,286.800 218.716 C 286.800 218.596,287.072 217.846,287.405 217.049 C 287.738 216.252,287.921 215.600,287.811 215.600 C 287.701 215.600,287.336 216.258,287.000 217.061 M278.000 217.284 C 278.000 217.404,277.728 218.154,277.395 218.951 C 277.062 219.748,276.879 220.400,276.989 220.400 C 277.306 220.400,278.433 217.500,278.205 217.272 C 278.092 217.159,278.000 217.165,278.000 217.284 M243.807 220.279 C 244.407 221.714,244.800 222.362,244.800 221.916 C 244.800 221.484,243.585 218.800,243.389 218.800 C 243.279 218.800,243.467 219.466,243.807 220.279 M284.672 222.219 C 283.732 224.189,283.864 224.524,284.847 222.662 C 285.293 221.816,285.587 221.054,285.501 220.967 C 285.414 220.881,285.041 221.444,284.672 222.219 M194.854 225.996 C 199.636 231.353,199.602 231.318,199.587 230.929 C 199.580 230.748,197.669 228.620,195.341 226.200 L 191.109 221.800 194.854 225.996 M245.407 223.879 C 246.007 225.314,246.400 225.962,246.400 225.516 C 246.400 225.084,245.185 222.400,244.989 222.400 C 244.879 222.400,245.067 223.066,245.407 223.879 M275.492 223.283 C 273.977 227.065,273.601 228.136,273.904 227.800 C 274.392 227.260,276.048 223.114,275.853 222.920 C 275.768 222.835,275.606 222.998,275.492 223.283 M282.629 226.648 C 282.063 227.885,281.607 229.010,281.616 229.148 C 281.637 229.482,282.758 227.398,283.456 225.728 C 284.378 223.520,283.732 224.240,282.629 226.648 M181.607 228.407 C 183.418 230.391,185.102 232.138,185.350 232.289 C 185.597 232.440,184.270 230.832,182.400 228.716 C 180.530 226.600,178.846 224.854,178.657 224.835 C 178.468 224.816,179.795 226.423,181.607 228.407 M247.007 227.479 C 247.607 228.914,248.000 229.562,248.000 229.116 C 248.000 228.684,246.785 226.000,246.589 226.000 C 246.479 226.000,246.667 226.666,247.007 227.479 M280.600 231.061 C 280.264 231.865,280.082 232.615,280.195 232.728 C 280.308 232.841,280.400 232.835,280.400 232.716 C 280.400 232.596,280.672 231.846,281.005 231.049 C 281.338 230.252,281.521 229.600,281.411 229.600 C 281.301 229.600,280.936 230.258,280.600 231.061 M202.179 233.967 C 205.739 237.984,209.200 241.609,209.184 241.301 C 209.175 241.136,207.150 238.915,204.684 236.367 C 202.218 233.818,201.090 232.738,202.179 233.967 M249.407 233.079 C 250.007 234.514,250.400 235.162,250.400 234.716 C 250.400 234.284,249.185 231.600,248.989 231.600 C 248.879 231.600,249.067 232.266,249.407 233.079 M271.492 232.883 C 269.977 236.665,269.601 237.736,269.904 237.400 C 270.392 236.860,272.048 232.714,271.853 232.520 C 271.768 232.435,271.606 232.598,271.492 232.883 M186.012 233.117 C 186.019 233.273,187.504 234.941,189.312 236.823 C 192.458 240.099,191.924 239.387,187.883 234.917 C 186.847 233.772,186.005 232.962,186.012 233.117 M278.200 236.261 C 277.864 237.065,277.682 237.815,277.795 237.928 C 277.908 238.041,278.000 238.035,278.000 237.916 C 278.000 237.796,278.272 237.046,278.605 236.249 C 278.938 235.452,279.121 234.800,279.011 234.800 C 278.901 234.800,278.536 235.458,278.200 236.261 M251.007 236.679 C 251.607 238.114,252.000 238.762,252.000 238.316 C 252.000 237.884,250.785 235.200,250.589 235.200 C 250.479 235.200,250.667 235.866,251.007 236.679 M252.607 240.279 C 253.207 241.714,253.600 242.362,253.600 241.916 C 253.600 241.484,252.385 238.800,252.189 238.800 C 252.079 238.800,252.267 239.466,252.607 240.279 M275.872 241.419 C 274.932 243.389,275.064 243.724,276.047 241.862 C 276.493 241.016,276.787 240.254,276.701 240.167 C 276.614 240.081,276.241 240.644,275.872 241.419 M143.241 241.618 C 143.141 244.104,148.057 249.622,150.345 249.591 C 150.705 249.586,150.276 249.254,149.391 248.852 C 146.629 247.597,144.297 244.770,143.574 241.800 C 143.300 240.676,143.279 240.664,143.241 241.618 M196.007 244.407 C 197.818 246.391,199.502 248.138,199.750 248.289 C 199.997 248.440,198.670 246.832,196.800 244.716 C 194.930 242.600,193.246 240.854,193.057 240.835 C 192.868 240.816,194.195 242.423,196.007 244.407 M130.422 243.489 C 130.130 244.297,128.971 245.861,127.846 246.966 C 126.394 248.390,126.188 248.700,127.136 248.034 C 128.551 247.039,130.604 244.448,131.022 243.129 C 131.481 241.685,130.962 241.996,130.422 243.489 M214.880 247.571 C 217.831 250.744,222.486 255.400,225.223 257.917 L 230.200 262.493 225.087 257.547 C 222.276 254.826,217.621 250.170,214.744 247.200 L 209.513 241.800 214.880 247.571 M267.148 243.393 C 266.663 244.736,266.581 244.791,266.075 244.123 C 265.552 243.432,265.534 243.434,265.664 244.167 C 265.901 245.504,266.744 245.308,267.388 243.766 C 267.731 242.947,267.935 242.201,267.842 242.109 C 267.749 242.016,267.437 242.594,267.148 243.393 M253.634 242.600 C 253.634 242.820,253.978 243.630,254.400 244.400 C 254.822 245.170,255.166 245.620,255.166 245.400 C 255.166 245.180,254.822 244.370,254.400 243.600 C 253.978 242.830,253.634 242.380,253.634 242.600 M274.200 245.061 C 273.864 245.865,273.682 246.615,273.795 246.728 C 273.908 246.841,274.000 246.835,274.000 246.716 C 274.000 246.596,274.272 245.846,274.605 245.049 C 274.938 244.252,275.121 243.600,275.011 243.600 C 274.901 243.600,274.536 244.258,274.200 245.061 M202.549 251.720 C 204.061 253.414,205.385 254.800,205.490 254.800 C 205.752 254.800,200.825 249.261,200.255 248.916 C 200.005 248.764,201.037 250.026,202.549 251.720 M271.872 250.219 C 270.932 252.189,271.064 252.524,272.047 250.662 C 272.493 249.816,272.787 249.054,272.701 248.967 C 272.614 248.881,272.241 249.444,271.872 250.219 M120.200 249.891 C 119.540 249.985,118.851 250.206,118.669 250.382 C 118.375 250.667,121.986 250.192,123.000 249.813 C 123.515 249.620,121.755 249.669,120.200 249.891 M154.100 250.276 C 154.485 250.376,155.115 250.376,155.500 250.276 C 155.885 250.175,155.570 250.093,154.800 250.093 C 154.030 250.093,153.715 250.175,154.100 250.276 M118.744 252.104 C 118.911 252.271,127.317 252.361,137.424 252.304 L 155.800 252.200 137.120 252.000 C 126.846 251.890,118.577 251.937,118.744 252.104 M258.207 253.079 C 258.807 254.514,259.200 255.162,259.200 254.716 C 259.200 254.284,257.985 251.600,257.789 251.600 C 257.679 251.600,257.867 252.266,258.207 253.079 M269.638 255.300 C 269.449 255.795,269.004 256.897,268.648 257.749 C 268.291 258.601,268.011 259.501,268.025 259.749 C 268.039 259.997,268.200 259.840,268.384 259.400 C 269.681 256.282,270.359 254.400,270.184 254.400 C 270.072 254.400,269.826 254.805,269.638 255.300 M206.000 255.588 C 206.000 255.711,208.250 258.057,211.000 260.800 C 213.750 263.543,216.000 265.693,216.000 265.576 C 216.000 265.460,213.750 263.115,211.000 260.365 C 208.250 257.615,206.000 255.465,206.000 255.588 M259.807 256.679 C 260.407 258.114,260.800 258.762,260.800 258.316 C 260.800 257.884,259.585 255.200,259.389 255.200 C 259.279 255.200,259.467 255.866,259.807 256.679 M232.099 264.282 C 234.971 266.783,235.549 267.111,233.215 264.916 C 231.997 263.769,230.864 262.824,230.699 262.816 C 230.533 262.807,231.163 263.467,232.099 264.282 M266.643 263.433 C 266.509 263.781,266.400 264.507,266.400 265.046 C 266.400 265.688,266.090 266.150,265.500 266.388 C 264.891 266.632,264.810 266.757,265.251 266.775 C 266.148 266.810,266.648 266.068,266.919 264.300 C 267.162 262.722,267.050 262.371,266.643 263.433 M218.200 267.392 C 220.253 269.279,225.477 273.422,224.400 272.309 C 224.070 271.968,222.090 270.309,220.000 268.622 C 217.910 266.935,217.100 266.381,218.200 267.392 M237.200 268.411 C 239.115 270.132,243.216 272.918,243.465 272.668 C 243.577 272.556,243.248 272.248,242.734 271.983 C 242.220 271.718,240.450 270.523,238.800 269.328 C 237.150 268.132,236.430 267.720,237.200 268.411 M246.000 274.156 C 246.000 274.364,249.508 276.006,249.896 275.979 C 250.167 275.960,246.433 274.000,246.125 274.000 C 246.056 274.000,246.000 274.070,246.000 274.156 M229.200 275.622 C 230.233 276.326,232.800 277.625,232.800 277.442 C 232.800 277.233,229.205 275.197,228.850 275.206 C 228.712 275.209,228.870 275.396,229.200 275.622 M252.800 277.182 C 253.130 277.405,253.745 277.591,254.167 277.594 C 255.190 277.602,254.871 277.373,253.400 277.044 C 252.524 276.848,252.362 276.885,252.800 277.182 M233.254 277.787 C 233.590 278.123,236.400 279.216,236.400 279.011 C 236.400 278.901,235.748 278.538,234.951 278.205 C 233.475 277.589,232.918 277.451,233.254 277.787 M255.600 277.994 C 255.930 278.211,256.635 278.391,257.167 278.394 C 258.451 278.402,258.125 278.175,256.400 277.858 C 255.415 277.677,255.178 277.718,255.600 277.994 M259.200 278.840 C 259.750 278.994,262.225 279.138,264.700 279.160 C 268.867 279.197,269.200 279.257,269.200 279.973 C 269.200 280.404,268.833 280.863,268.370 281.010 C 267.913 281.154,267.628 281.361,267.736 281.469 C 268.155 281.888,269.600 280.729,269.600 279.973 C 269.600 278.911,269.419 278.874,263.400 278.706 C 260.540 278.626,258.650 278.686,259.200 278.840 M240.833 280.944 C 240.925 281.023,241.540 281.208,242.200 281.356 C 243.076 281.552,243.238 281.515,242.800 281.218 C 242.260 280.853,240.432 280.598,240.833 280.944 M243.633 281.747 C 243.725 281.828,244.520 282.004,245.400 282.138 C 246.515 282.307,246.758 282.271,246.200 282.019 C 245.432 281.671,243.290 281.444,243.633 281.747 M264.400 282.000 C 263.056 282.431,264.508 282.431,266.200 282.000 C 267.278 281.726,267.298 281.694,266.400 281.687 C 265.850 281.683,264.950 281.824,264.400 282.000 M248.707 282.690 C 249.426 282.779,250.506 282.777,251.107 282.686 C 251.708 282.595,251.120 282.522,249.800 282.524 C 248.480 282.526,247.988 282.601,248.707 282.690 M260.300 282.682 C 260.795 282.778,261.605 282.778,262.100 282.682 C 262.595 282.587,262.190 282.509,261.200 282.509 C 260.210 282.509,259.805 282.587,260.300 282.682 M254.112 283.095 C 255.164 283.177,256.784 283.176,257.712 283.092 C 258.640 283.008,257.780 282.941,255.800 282.942 C 253.820 282.943,253.060 283.012,254.112 283.095 " stroke="none" fill="#535353" fill-rule="evenodd"></path><path id="path4" d="M354.800 104.407 C 354.179 104.611,354.709 104.651,356.200 104.512 C 357.520 104.389,358.675 104.224,358.767 104.144 C 359.089 103.865,355.788 104.084,354.800 104.407 M360.800 106.020 C 360.126 106.249,360.451 106.284,361.800 106.128 C 362.900 106.001,363.875 105.831,363.967 105.749 C 364.282 105.468,361.799 105.680,360.800 106.020 M336.700 110.229 C 335.205 111.040,335.296 111.378,336.800 110.600 C 337.460 110.259,338.000 109.894,338.000 109.790 C 338.000 109.532,337.957 109.547,336.700 110.229 M341.766 113.639 C 338.987 115.565,336.566 117.823,334.306 120.600 C 333.411 121.700,333.984 121.201,335.579 119.492 C 337.174 117.782,339.677 115.546,341.140 114.522 C 344.055 112.483,344.669 112.000,344.346 112.000 C 344.229 112.000,343.068 112.738,341.766 113.639 M329.243 115.400 C 328.084 116.390,327.284 117.193,327.467 117.185 C 327.846 117.167,331.920 113.621,331.576 113.608 C 331.453 113.604,330.403 114.410,329.243 115.400 M322.825 121.769 L 321.450 123.400 323.005 121.913 C 323.860 121.096,324.479 120.362,324.380 120.283 C 324.281 120.203,323.581 120.872,322.825 121.769 M331.375 124.268 C 330.759 125.076,330.459 125.611,330.709 125.456 C 331.221 125.140,332.953 122.800,332.675 122.800 C 332.576 122.800,331.991 123.461,331.375 124.268 M320.744 124.300 C 319.593 125.689,319.106 126.400,319.304 126.400 C 319.414 126.400,319.986 125.770,320.573 125.000 C 321.663 123.571,321.795 123.032,320.744 124.300 M326.253 132.100 L 325.533 133.400 326.358 132.400 C 327.089 131.513,327.414 130.800,327.086 130.800 C 327.024 130.800,326.649 131.385,326.253 132.100 M118.874 134.300 C 118.968 134.795,119.416 135.015,120.403 135.052 L 121.800 135.104 120.468 134.924 C 119.518 134.796,119.199 134.580,119.355 134.172 C 119.476 133.858,119.387 133.600,119.158 133.600 C 118.929 133.600,118.801 133.915,118.874 134.300 M168.433 133.746 C 168.525 133.826,169.590 133.994,170.800 134.119 C 172.220 134.266,172.646 134.229,172.000 134.013 C 171.009 133.683,168.113 133.465,168.433 133.746 M324.600 134.800 C 324.259 135.460,324.069 136.000,324.179 136.000 C 324.289 136.000,324.659 135.460,325.000 134.800 C 325.341 134.140,325.531 133.600,325.421 133.600 C 325.311 133.600,324.941 134.140,324.600 134.800 M173.633 134.544 C 173.725 134.623,174.340 134.808,175.000 134.956 C 175.876 135.152,176.038 135.115,175.600 134.818 C 175.060 134.453,173.232 134.198,173.633 134.544 M125.600 136.094 C 125.710 136.213,126.700 136.987,127.800 137.812 C 128.978 138.695,129.440 138.919,128.924 138.356 C 128.442 137.830,127.452 137.057,126.724 136.638 C 125.996 136.219,125.490 135.974,125.600 136.094 M142.880 138.880 C 142.517 139.243,142.400 145.658,142.400 165.302 L 142.400 191.244 137.199 191.122 C 134.339 191.055,131.999 191.140,131.999 191.312 C 132.000 191.483,134.385 191.573,137.300 191.512 L 142.600 191.400 142.800 165.200 L 143.000 139.000 155.786 139.000 C 162.818 139.000,168.038 138.886,167.386 138.747 C 165.045 138.249,143.394 138.366,142.880 138.880 M185.600 139.661 C 187.812 141.867,191.210 144.776,189.800 143.256 C 188.920 142.308,187.480 140.977,186.600 140.297 C 185.720 139.618,185.270 139.332,185.600 139.661 M173.210 140.926 C 173.809 141.574,176.495 143.197,176.018 142.622 C 175.710 142.251,174.905 141.666,174.229 141.323 C 173.553 140.979,173.095 140.801,173.210 140.926 M131.468 144.200 C 131.771 146.177,132.002 146.514,131.994 144.967 C 131.991 144.325,131.816 143.530,131.605 143.200 C 131.345 142.791,131.301 143.110,131.468 144.200 M179.199 146.300 C 179.722 147.015,180.213 147.600,180.289 147.600 C 180.593 147.600,179.601 146.100,178.945 145.567 C 178.513 145.216,178.610 145.496,179.199 146.300 M192.255 146.600 C 192.867 147.480,193.420 148.275,193.484 148.367 C 193.548 148.458,193.600 148.362,193.600 148.152 C 193.600 147.942,193.047 147.147,192.371 146.385 L 191.142 145.000 192.255 146.600 M238.244 146.170 C 238.387 146.542,238.139 146.799,237.531 146.909 C 236.657 147.067,236.661 147.075,237.597 147.039 C 238.550 147.002,239.374 145.600,238.442 145.600 C 238.213 145.600,238.124 145.857,238.244 146.170 M213.016 152.000 C 213.887 152.990,214.923 154.250,215.317 154.800 C 216.010 155.766,216.011 155.756,215.327 154.493 C 214.938 153.774,213.902 152.514,213.025 151.693 L 211.431 150.200 213.016 152.000 M230.114 154.200 C 230.117 155.300,230.195 155.703,230.287 155.095 C 230.379 154.486,230.377 153.586,230.282 153.095 C 230.187 152.603,230.111 153.100,230.114 154.200 M183.256 154.400 C 183.256 154.730,183.411 155.360,183.600 155.800 C 183.817 156.304,183.944 156.378,183.944 156.000 C 183.944 155.670,183.789 155.040,183.600 154.600 C 183.383 154.096,183.256 154.022,183.256 154.400 M196.056 154.800 C 196.056 155.130,196.211 155.760,196.400 156.200 C 196.617 156.704,196.744 156.778,196.744 156.400 C 196.744 156.070,196.589 155.440,196.400 155.000 C 196.183 154.496,196.056 154.422,196.056 154.800 M184.095 158.000 C 184.095 158.550,184.232 159.540,184.400 160.200 C 184.672 161.270,184.705 161.292,184.705 160.400 C 184.705 159.850,184.568 158.860,184.400 158.200 C 184.128 157.130,184.095 157.108,184.095 158.000 M197.000 164.200 C 197.000 167.695,197.114 170.025,197.253 169.377 C 197.392 168.730,197.505 166.400,197.505 164.200 C 197.505 162.000,197.392 159.670,197.253 159.023 C 197.114 158.375,197.000 160.705,197.000 164.200 M196.250 172.850 C 195.917 174.517,196.240 174.840,196.600 173.200 C 196.752 172.509,196.793 171.859,196.691 171.758 C 196.589 171.656,196.391 172.147,196.250 172.850 M192.696 182.135 C 191.869 183.711,191.478 184.640,191.828 184.200 C 192.602 183.226,194.503 179.570,194.327 179.395 C 194.257 179.326,193.523 180.559,192.696 182.135 M187.385 189.245 C 186.293 190.370,185.760 191.062,186.200 190.783 C 186.981 190.286,189.851 187.200,189.531 187.200 C 189.443 187.200,188.477 188.120,187.385 189.245 M167.467 190.667 C 166.668 191.465,167.999 191.592,176.300 191.508 L 185.400 191.416 176.600 191.297 C 170.799 191.219,168.004 191.048,168.400 190.795 C 168.926 190.460,168.921 190.411,168.367 190.406 C 168.018 190.403,167.613 190.520,167.467 190.667 M231.549 190.900 C 232.035 191.519,232.797 191.590,238.149 191.512 L 244.200 191.423 238.228 191.300 C 234.304 191.220,232.040 191.010,231.628 190.689 C 231.074 190.258,231.065 190.283,231.549 190.900 M103.457 195.907 C 103.353 196.076,103.972 196.148,104.834 196.065 C 105.695 195.983,106.400 195.845,106.400 195.758 C 106.400 195.460,103.647 195.600,103.457 195.907 M118.167 196.142 C 118.052 196.440,118.023 197.835,118.102 199.242 L 118.246 201.800 118.323 198.876 C 118.371 197.047,118.550 196.045,118.800 196.200 C 119.020 196.336,119.200 196.257,119.200 196.024 C 119.200 195.412,118.412 195.502,118.167 196.142 M123.200 195.990 C 123.200 196.242,123.371 196.341,123.581 196.212 C 123.799 196.077,124.024 196.962,124.109 198.288 L 124.257 200.600 124.229 198.232 C 124.210 196.714,124.021 195.804,123.700 195.698 C 123.425 195.608,123.200 195.739,123.200 195.990 M136.670 195.887 C 137.369 195.975,138.179 196.340,138.470 196.698 C 138.929 197.262,138.903 197.314,138.279 197.079 C 137.846 196.917,137.656 196.967,137.803 197.205 C 138.101 197.687,139.200 197.732,139.200 197.262 C 139.200 196.529,137.675 195.603,136.569 195.664 L 135.400 195.728 136.670 195.887 M148.594 196.480 C 148.125 198.349,148.553 203.000,149.193 203.000 C 149.569 203.000,149.876 202.449,150.030 201.500 C 150.164 200.675,150.122 200.000,149.937 200.000 C 149.752 200.000,149.600 200.630,149.600 201.400 C 149.600 202.170,149.420 202.800,149.200 202.800 C 148.967 202.800,148.800 201.475,148.800 199.624 C 148.800 197.877,148.980 196.336,149.200 196.200 C 149.431 196.057,149.600 196.436,149.600 197.096 C 149.600 198.875,152.521 200.222,153.377 198.837 C 153.500 198.638,153.244 198.568,152.807 198.682 C 151.205 199.101,150.059 198.484,149.925 197.130 C 149.774 195.596,148.921 195.180,148.594 196.480 M153.794 196.010 C 153.655 196.235,153.779 196.370,154.070 196.310 C 154.916 196.134,155.052 202.668,154.208 202.927 C 153.744 203.069,153.766 203.102,154.292 203.055 C 154.883 203.002,155.020 202.529,155.120 200.204 C 155.286 196.370,154.706 194.535,153.794 196.010 M164.594 196.480 C 164.122 198.362,164.553 203.000,165.200 203.000 C 165.985 203.000,166.096 195.965,165.315 195.705 C 165.048 195.616,164.724 195.965,164.594 196.480 M175.867 195.867 C 175.498 196.236,175.529 203.200,175.900 203.201 C 176.065 203.201,176.142 201.563,176.071 199.559 C 175.981 197.037,176.073 195.998,176.371 196.182 C 176.607 196.328,176.800 196.257,176.800 196.024 C 176.800 195.549,176.273 195.460,175.867 195.867 M199.402 195.997 C 199.267 196.215,199.355 196.710,199.597 197.097 C 199.970 197.692,199.997 197.652,199.773 196.839 C 199.556 196.054,199.629 195.926,200.175 196.135 C 200.567 196.285,200.741 196.228,200.597 195.995 C 200.284 195.488,199.716 195.489,199.402 195.997 M217.003 195.995 C 216.865 196.218,217.017 196.292,217.350 196.164 C 217.727 196.019,218.164 196.347,218.555 197.068 C 218.892 197.691,219.175 198.015,219.184 197.789 C 219.231 196.586,217.512 195.172,217.003 195.995 M230.187 196.508 C 229.720 198.368,230.158 203.000,230.800 203.000 C 231.157 203.000,231.451 202.555,231.527 201.900 C 231.608 201.189,231.891 200.798,232.327 200.794 C 232.891 200.789,232.906 200.728,232.419 200.420 C 231.586 199.893,231.200 200.275,231.200 201.624 C 231.200 202.271,231.013 202.800,230.784 202.800 C 230.520 202.800,230.410 201.593,230.484 199.500 L 230.600 196.200 232.200 195.957 L 233.800 195.714 232.108 195.657 C 230.658 195.608,230.383 195.730,230.187 196.508 M247.403 195.995 C 247.265 196.218,247.417 196.292,247.750 196.164 C 248.127 196.019,248.564 196.347,248.955 197.068 C 249.292 197.691,249.575 198.015,249.584 197.789 C 249.631 196.586,247.912 195.172,247.403 195.995 M260.643 196.233 C 260.295 197.140,260.342 202.717,260.700 202.939 C 260.865 203.041,261.000 201.567,261.000 199.663 L 261.000 196.200 262.800 195.960 L 264.600 195.720 262.743 195.660 C 261.379 195.616,260.821 195.768,260.643 196.233 M277.073 195.880 C 276.964 196.056,277.781 196.136,278.888 196.058 C 280.262 195.961,281.021 196.088,281.281 196.458 C 281.588 196.896,281.630 196.885,281.499 196.400 C 281.323 195.749,277.438 195.293,277.073 195.880 M107.500 196.399 C 108.256 197.247,108.102 198.439,107.100 199.507 L 106.200 200.465 107.468 201.598 C 108.165 202.221,108.630 202.837,108.501 202.966 C 108.372 203.095,108.477 203.200,108.733 203.200 C 108.990 203.200,109.200 202.930,109.200 202.600 C 109.200 202.270,108.958 202.000,108.662 202.000 C 107.294 202.000,106.607 200.457,107.534 199.470 C 108.581 198.356,108.649 197.086,107.700 196.368 C 107.104 195.918,107.075 195.922,107.500 196.399 M165.600 199.400 C 165.600 201.400,165.435 202.800,165.200 202.800 C 164.757 202.800,164.632 196.701,165.067 196.267 C 165.562 195.771,165.600 195.993,165.600 199.400 M266.034 197.047 C 266.565 197.733,267.080 198.223,267.179 198.135 C 267.277 198.047,266.843 197.486,266.213 196.888 L 265.069 195.800 266.034 197.047 M104.561 198.000 C 104.591 198.777,104.813 199.000,105.556 199.000 C 106.698 199.000,107.600 197.840,106.958 197.198 C 106.659 196.899,106.543 197.043,106.567 197.687 C 106.615 199.003,104.925 199.217,104.690 197.924 C 104.536 197.075,104.526 197.081,104.561 198.000 M135.337 197.419 C 135.107 198.020,136.172 199.161,136.989 199.187 C 137.203 199.194,136.966 198.911,136.462 198.558 C 135.957 198.204,135.642 197.667,135.761 197.358 C 135.878 197.051,135.885 196.800,135.775 196.800 C 135.665 196.800,135.468 197.079,135.337 197.419 M231.273 197.900 C 231.371 198.744,231.640 199.028,232.434 199.120 C 233.772 199.276,234.626 198.317,234.037 197.321 C 233.662 196.688,233.622 196.721,233.705 197.600 C 233.783 198.425,233.625 198.600,232.800 198.600 C 232.020 198.600,231.807 198.402,231.832 197.700 C 231.849 197.205,231.702 196.800,231.505 196.800 C 231.308 196.800,231.204 197.295,231.273 197.900 M261.867 197.067 C 261.335 197.598,261.587 201.491,262.185 201.987 C 262.918 202.596,265.410 201.873,265.765 200.948 C 266.426 199.226,265.499 196.800,264.180 196.800 C 263.983 196.800,264.232 197.087,264.733 197.438 C 266.058 198.366,265.823 200.793,264.340 201.500 C 262.475 202.389,261.916 201.811,262.067 199.144 C 262.140 197.854,262.185 196.799,262.167 196.799 C 262.148 196.800,262.013 196.920,261.867 197.067 M278.122 197.800 C 278.192 198.878,278.363 199.023,279.800 199.227 L 281.400 199.453 280.000 199.679 L 278.600 199.904 280.000 199.852 C 281.736 199.787,281.690 199.071,279.933 198.800 C 278.981 198.654,278.555 198.332,278.338 197.600 C 278.064 196.670,278.049 196.683,278.122 197.800 M234.229 199.429 C 233.482 200.175,233.433 200.649,234.062 201.038 C 234.356 201.220,234.415 201.147,234.223 200.837 C 234.053 200.563,234.229 200.010,234.623 199.575 C 235.459 198.650,235.129 198.528,234.229 199.429 M218.265 199.776 C 218.117 200.160,217.765 200.293,217.315 200.134 C 216.729 199.928,216.691 199.980,217.103 200.424 C 217.524 200.878,217.715 200.856,218.279 200.292 C 218.649 199.922,218.850 199.517,218.726 199.392 C 218.601 199.268,218.393 199.440,218.265 199.776 M248.665 199.776 C 248.517 200.160,248.165 200.293,247.715 200.134 C 247.129 199.928,247.091 199.980,247.503 200.424 C 247.924 200.878,248.115 200.856,248.679 200.292 C 249.049 199.922,249.250 199.517,249.126 199.392 C 249.001 199.268,248.793 199.440,248.665 199.776 M201.600 199.924 C 201.600 200.508,202.729 201.805,203.001 201.533 C 203.147 201.386,202.892 200.892,202.433 200.433 C 201.975 199.975,201.600 199.746,201.600 199.924 M104.668 200.266 C 104.521 200.413,104.400 201.030,104.400 201.637 C 104.400 202.276,104.144 202.821,103.792 202.930 C 103.366 203.062,103.395 203.100,103.892 203.056 C 104.346 203.016,104.645 202.600,104.727 201.897 C 104.886 200.513,104.963 200.522,106.373 202.100 C 107.011 202.815,107.594 203.310,107.667 203.200 C 107.894 202.860,104.952 199.981,104.668 200.266 M122.832 200.487 C 122.814 200.865,122.305 201.443,121.700 201.771 C 121.095 202.099,120.805 202.375,121.056 202.384 C 121.859 202.412,123.322 200.963,123.088 200.370 C 122.918 199.939,122.855 199.967,122.832 200.487 M137.158 200.366 C 137.877 200.821,137.433 202.000,136.544 202.000 C 136.169 202.000,135.530 201.698,135.122 201.329 C 134.010 200.323,133.179 201.272,134.191 202.391 C 134.594 202.836,135.096 203.200,135.306 203.200 C 135.517 203.200,135.264 202.855,134.744 202.434 C 134.225 202.013,133.934 201.534,134.098 201.370 C 134.261 201.206,134.725 201.370,135.129 201.736 C 136.136 202.647,137.489 202.580,137.799 201.604 C 138.088 200.693,137.773 199.997,137.076 200.006 C 136.768 200.010,136.796 200.137,137.158 200.366 M266.832 200.438 C 266.790 201.286,265.555 202.366,264.143 202.789 C 263.172 203.080,263.134 203.136,263.894 203.166 C 265.029 203.209,267.393 201.142,267.089 200.371 C 266.908 199.914,266.857 199.928,266.832 200.438 M278.122 201.000 C 278.191 202.061,278.362 202.215,279.597 202.333 C 280.365 202.405,281.127 202.675,281.290 202.933 C 281.488 203.243,281.590 203.173,281.594 202.724 C 281.598 202.232,281.197 202.015,280.116 201.924 C 278.930 201.825,278.572 201.599,278.337 200.800 C 278.064 199.870,278.049 199.884,278.122 201.000 M200.832 201.224 C 200.814 201.566,201.080 202.196,201.422 202.624 C 202.034 203.388,202.038 203.387,201.676 202.600 C 201.474 202.160,201.208 201.530,201.086 201.200 C 200.893 200.682,200.859 200.685,200.832 201.224 M176.881 201.600 C 176.989 201.959,177.656 202.250,178.539 202.325 C 179.484 202.404,179.919 202.607,179.747 202.886 C 179.583 203.151,179.662 203.209,179.945 203.034 C 180.677 202.581,180.065 202.000,178.856 202.000 C 178.253 202.000,177.522 201.775,177.230 201.500 C 176.802 201.096,176.735 201.116,176.881 201.600 M215.583 202.031 C 215.290 202.580,214.911 202.775,214.469 202.607 C 213.916 202.397,213.891 202.443,214.328 202.876 C 214.764 203.308,214.985 203.243,215.593 202.500 C 216.570 201.304,218.981 201.244,219.600 202.400 C 220.048 203.237,221.200 203.508,221.200 202.776 C 221.200 202.543,221.006 202.473,220.768 202.620 C 220.530 202.767,220.070 202.507,219.745 202.043 C 218.917 200.861,216.214 200.853,215.583 202.031 M245.983 202.031 C 245.690 202.580,245.311 202.775,244.869 202.607 C 244.316 202.397,244.291 202.443,244.728 202.876 C 245.164 203.308,245.385 203.243,245.993 202.500 C 246.970 201.304,249.381 201.244,250.000 202.400 C 250.448 203.237,251.600 203.508,251.600 202.776 C 251.600 202.543,251.406 202.473,251.168 202.620 C 250.930 202.767,250.470 202.507,250.145 202.043 C 249.317 200.861,246.614 200.853,245.983 202.031 M235.113 202.135 C 235.614 202.414,235.884 202.796,235.713 202.985 C 235.540 203.174,235.651 203.183,235.961 203.003 C 236.561 202.655,235.530 201.584,234.624 201.614 C 234.391 201.622,234.611 201.856,235.113 202.135 M284.600 209.200 L 282.200 209.466 284.400 209.505 C 285.610 209.526,286.960 209.389,287.400 209.200 C 288.292 208.817,288.064 208.817,284.600 209.200 M131.999 209.500 C 131.999 209.665,134.339 209.745,137.199 209.678 L 142.400 209.556 142.447 224.878 C 142.473 233.305,142.608 240.733,142.747 241.385 C 142.886 242.037,142.950 235.287,142.888 226.385 C 142.827 217.483,142.698 209.975,142.601 209.700 C 142.406 209.145,132.001 208.949,131.999 209.500 M165.600 209.635 C 165.600 210.156,172.049 217.516,172.549 217.565 C 172.741 217.584,171.346 215.909,169.449 213.842 C 167.552 211.776,166.000 209.980,166.000 209.852 C 166.000 209.724,169.015 209.565,172.700 209.499 L 179.400 209.379 172.500 209.290 C 167.743 209.228,165.600 209.335,165.600 209.635 M239.999 209.500 C 239.999 209.665,241.754 209.752,243.899 209.694 C 250.848 209.505,251.528 209.346,245.700 209.272 C 242.565 209.232,240.000 209.335,239.999 209.500 M184.807 215.607 C 186.618 217.591,188.302 219.336,188.550 219.485 C 188.797 219.634,187.403 218.011,185.451 215.878 C 183.499 213.745,181.814 212.000,181.707 212.000 C 181.601 212.000,182.995 213.623,184.807 215.607 M176.405 222.006 C 177.995 223.769,179.499 225.335,179.748 225.485 C 179.996 225.635,178.783 224.192,177.051 222.279 C 175.319 220.366,173.815 218.800,173.708 218.800 C 173.602 218.800,174.816 220.243,176.405 222.006 M189.213 220.324 C 189.219 220.476,190.884 222.321,192.913 224.424 C 194.941 226.526,195.873 227.426,194.984 226.424 C 191.499 222.489,189.201 220.060,189.213 220.324 M182.200 228.400 C 183.059 229.280,183.852 230.000,183.962 230.000 C 184.072 230.000,183.459 229.280,182.600 228.400 C 181.741 227.520,180.948 226.800,180.838 226.800 C 180.728 226.800,181.341 227.520,182.200 228.400 M201.609 234.009 C 203.862 236.434,205.907 238.539,206.153 238.686 C 206.399 238.833,204.643 236.849,202.251 234.277 C 199.858 231.705,197.813 229.600,197.706 229.600 C 197.599 229.600,199.355 231.584,201.609 234.009 M185.400 232.000 C 186.259 232.880,187.052 233.600,187.162 233.600 C 187.272 233.600,186.659 232.880,185.800 232.000 C 184.941 231.120,184.148 230.400,184.038 230.400 C 183.928 230.400,184.541 231.120,185.400 232.000 M189.400 236.400 C 190.259 237.280,191.052 238.000,191.162 238.000 C 191.272 238.000,190.659 237.280,189.800 236.400 C 188.941 235.520,188.148 234.800,188.038 234.800 C 187.928 234.800,188.541 235.520,189.400 236.400 M192.600 240.000 C 193.459 240.880,194.252 241.600,194.362 241.600 C 194.472 241.600,193.859 240.880,193.000 240.000 C 192.141 239.120,191.348 238.400,191.238 238.400 C 191.128 238.400,191.741 239.120,192.600 240.000 M206.800 239.445 C 206.800 239.653,208.015 240.988,209.500 242.412 L 212.200 245.000 209.600 242.210 C 208.170 240.676,206.955 239.341,206.900 239.244 C 206.845 239.146,206.800 239.237,206.800 239.445 M131.660 240.467 C 131.627 241.054,131.496 241.864,131.370 242.267 C 131.152 242.960,131.165 242.961,131.595 242.290 C 131.846 241.899,131.977 241.089,131.886 240.490 L 131.720 239.400 131.660 240.467 M196.600 244.400 C 197.459 245.280,198.252 246.000,198.362 246.000 C 198.472 246.000,197.859 245.280,197.000 244.400 C 196.141 243.520,195.348 242.800,195.238 242.800 C 195.128 242.800,195.741 243.520,196.600 244.400 M265.600 245.243 C 265.600 245.628,266.674 245.993,266.961 245.706 C 267.413 245.253,267.198 244.971,266.400 244.971 C 265.960 244.971,265.600 245.094,265.600 245.243 M218.000 251.339 C 221.410 254.813,225.820 259.116,227.800 260.901 C 232.048 264.732,231.640 264.317,220.400 253.387 C 213.079 246.267,212.722 245.963,218.000 251.339 M145.800 247.150 C 146.460 247.877,147.540 248.728,148.200 249.041 C 148.860 249.355,149.054 249.384,148.632 249.106 C 148.209 248.828,147.129 247.977,146.232 247.215 L 144.600 245.829 145.800 247.150 M199.625 247.831 C 200.381 248.728,201.081 249.397,201.180 249.317 C 201.279 249.238,200.660 248.504,199.805 247.687 L 198.250 246.200 199.625 247.831 M123.000 250.000 C 122.496 250.217,122.422 250.344,122.800 250.344 C 123.130 250.344,123.760 250.189,124.200 250.000 C 124.704 249.783,124.778 249.656,124.400 249.656 C 124.070 249.656,123.440 249.811,123.000 250.000 M150.200 250.000 C 150.640 250.189,151.360 250.338,151.800 250.332 C 152.443 250.323,152.404 250.257,151.600 250.000 C 150.232 249.562,149.181 249.562,150.200 250.000 M203.018 251.577 C 205.836 254.867,207.599 256.764,207.588 256.491 C 207.582 256.331,206.277 254.840,204.688 253.177 C 203.100 251.514,202.348 250.794,203.018 251.577 M118.800 251.200 C 118.800 251.640,118.941 252.000,119.114 252.000 C 119.287 252.000,119.429 251.640,119.429 251.200 C 119.429 250.760,119.287 250.400,119.114 250.400 C 118.941 250.400,118.800 250.760,118.800 251.200 M155.200 250.770 C 155.733 251.152,155.733 251.248,155.200 251.630 C 154.667 252.013,154.667 252.043,155.200 251.897 C 155.530 251.807,155.800 251.493,155.800 251.200 C 155.800 250.907,155.530 250.593,155.200 250.503 C 154.667 250.357,154.667 250.387,155.200 250.770 M208.000 257.310 C 208.000 257.371,209.395 258.766,211.100 260.410 L 214.200 263.400 211.210 260.300 C 208.433 257.421,208.000 257.017,208.000 257.310 M215.317 264.259 C 215.661 264.824,220.400 268.953,220.400 268.688 C 220.400 268.584,219.193 267.441,217.718 266.149 C 216.243 264.857,215.163 264.006,215.317 264.259 M231.600 264.125 C 231.600 264.194,232.185 264.779,232.900 265.425 L 234.200 266.600 233.025 265.300 C 231.930 264.088,231.600 263.816,231.600 264.125 M266.046 264.900 C 265.999 266.016,264.720 266.511,264.263 265.590 C 264.151 265.365,264.106 265.410,264.161 265.690 C 264.217 265.971,264.654 266.258,265.133 266.328 C 266.083 266.468,266.581 265.685,266.280 264.523 C 266.158 264.050,266.077 264.180,266.046 264.900 M220.924 269.077 C 221.260 269.621,224.400 272.155,224.400 271.882 C 224.400 271.780,223.553 271.003,222.519 270.155 C 221.484 269.307,220.766 268.822,220.924 269.077 M239.294 270.490 C 240.482 271.500,242.800 272.947,242.800 272.679 C 242.800 272.588,241.765 271.849,240.500 271.037 C 239.235 270.225,238.692 269.979,239.294 270.490 M257.200 278.800 C 257.750 278.976,258.560 279.120,259.000 279.120 C 259.633 279.120,259.592 279.054,258.800 278.800 C 258.250 278.624,257.440 278.480,257.000 278.480 C 256.367 278.480,256.408 278.546,257.200 278.800 M264.928 279.499 C 269.193 279.641,269.859 280.164,266.968 281.100 C 265.400 281.608,265.400 281.609,266.795 281.395 C 267.562 281.278,268.438 280.933,268.742 280.629 C 269.830 279.541,268.845 279.198,264.876 279.284 L 261.000 279.367 264.928 279.499 M243.000 281.200 C 243.440 281.389,244.070 281.544,244.400 281.544 C 244.778 281.544,244.704 281.417,244.200 281.200 C 243.760 281.011,243.130 280.856,242.800 280.856 C 242.422 280.856,242.496 280.983,243.000 281.200 M246.800 281.980 C 247.799 282.320,250.282 282.532,249.967 282.251 C 249.875 282.169,248.900 281.999,247.800 281.872 C 246.451 281.716,246.126 281.751,246.800 281.980 M262.000 282.000 C 260.633 282.288,260.628 282.295,261.800 282.319 C 262.460 282.333,263.360 282.189,263.800 282.000 C 264.762 281.587,263.964 281.587,262.000 282.000 M254.905 282.687 C 255.514 282.779,256.414 282.777,256.905 282.682 C 257.397 282.587,256.900 282.511,255.800 282.514 C 254.700 282.517,254.297 282.595,254.905 282.687 " stroke="none" fill="#848484" fill-rule="evenodd"></path></g></svg>